<?xml version="1.0" encoding="utf-8"?>
<!-- Generator: Adobe Illustrator 26.0.0, SVG Export Plug-In . SVG Version: 6.00 Build 0)  -->
<svg version="1.1" xmlns="http://www.w3.org/2000/svg" xmlns:xlink="http://www.w3.org/1999/xlink" x="0px" y="0px"
	 viewBox="0 0 3710 3710" style="enable-background:new 0 0 3710 3710;" xml:space="preserve">
<style type="text/css">
	.st0{display:none;}
	.st1{display:inline;}
	.st2{fill:#FFFFFF;}
	.st3{fill:url(#SVGID_1_);}
	.st4{fill:#91B3FA;}
	.st5{fill:#BDD0FB;}
	.st6{fill:url(#SVGID_00000065760206930256730180000004367920999419534989_);}
	.st7{fill:url(#SVGID_00000052810439359132424250000014407287609629924489_);}
	.st8{fill:url(#SVGID_00000011011029066911417380000016635931554622908311_);}
	.st9{fill:url(#SVGID_00000165951896150492540260000013962407638887616440_);}
	.st10{fill:url(#SVGID_00000062899769092195729630000006412933683469516191_);}
	.st11{fill:url(#SVGID_00000026130692955738873310000005912090511135948986_);}
	.st12{fill:url(#SVGID_00000073715521644166689810000010866160945453845148_);}
	.st13{fill:url(#SVGID_00000121239885445245684780000017904237151407412127_);}
	.st14{fill:url(#SVGID_00000103228550959926290390000005151897836263292065_);}
	.st15{fill:url(#SVGID_00000059989198321407495540000007542846972864549519_);}
	.st16{fill:url(#SVGID_00000152237292821724789590000005514872967449796283_);}
	.st17{fill:url(#SVGID_00000091714209142424728450000016160885772353408184_);}
	.st18{fill:url(#SVGID_00000050661363579163752430000011179950856552683153_);}
	.st19{fill:url(#SVGID_00000037673281130514315910000012452647123513555624_);}
	.st20{fill:url(#SVGID_00000118372495007986776690000006346707745166061737_);}
	.st21{fill:url(#SVGID_00000128476576498813419190000009893463473841185185_);}
	.st22{fill:url(#SVGID_00000108268670672517651900000017501161969872500361_);}
	.st23{fill:url(#SVGID_00000103263146723073466560000017217593090854987151_);}
	.st24{fill:url(#SVGID_00000162331286959964623900000011125166252438312849_);}
	.st25{fill:url(#SVGID_00000016047332349103353140000008279221277019021987_);}
	.st26{fill:url(#SVGID_00000053508236514780928110000018157719236917033654_);}
	.st27{fill:url(#SVGID_00000044177998813993662560000004616913714594678194_);}
	.st28{fill:url(#SVGID_00000160149611298630268410000008065543692814265279_);}
	.st29{fill:url(#SVGID_00000113344062590074341420000002331518218051995818_);}
	.st30{fill:url(#SVGID_00000157296378602828615440000017535368953052843948_);}
	.st31{fill:url(#SVGID_00000039818944641573901410000007940937477536829855_);}
	.st32{fill:#7D97F4;}
	.st33{fill:url(#SVGID_00000046307673692945060750000006190447352983572888_);}
	.st34{fill:url(#SVGID_00000172432831797126196220000013357547320256913803_);}
	.st35{fill:url(#SVGID_00000052792280536698620800000013778032949659339707_);}
	.st36{fill:url(#SVGID_00000167374777804722555210000005708795712766083463_);}
	.st37{fill:url(#SVGID_00000096764119142650363610000014572330486622895781_);}
	.st38{fill:url(#SVGID_00000150821437996452340640000007815877771345505426_);}
	.st39{fill:url(#SVGID_00000104687211719636711310000014615333755591564161_);}
	.st40{fill:url(#SVGID_00000088096645223297914280000010466232075457108882_);}
	.st41{fill:url(#SVGID_00000076579999417254265710000000558635309139196544_);}
	.st42{fill:url(#SVGID_00000150803422303564618870000008615713398277389974_);}
	.st43{fill:url(#SVGID_00000106140984576073064630000000455717257496620442_);}
	.st44{fill:url(#SVGID_00000152973339004107441250000003703380132537523594_);}
	.st45{fill:url(#SVGID_00000111893418922446395130000002767297140762926749_);}
	.st46{fill:url(#SVGID_00000176739526356704915310000000991471720127486399_);}
	.st47{fill:url(#SVGID_00000165953787044889467200000000925873839645504166_);}
	.st48{fill:url(#SVGID_00000178919060308257473040000008477848561190166678_);}
	.st49{fill:url(#SVGID_00000116204113461564220880000013928955563918437818_);}
	.st50{fill:url(#SVGID_00000052787426784251055560000000444128128124067247_);}
	.st51{fill:url(#SVGID_00000064350155707418225830000013210247836837703579_);}
	.st52{fill:url(#SVGID_00000013876973913373260080000016913441967119342770_);}
	.st53{fill:url(#SVGID_00000101789364573262398030000005063285642835211198_);}
	.st54{fill:url(#SVGID_00000060724667287562387820000003270426233611468960_);}
	.st55{fill:url(#SVGID_00000036250216601801095230000013083089366494313628_);}
	.st56{fill:url(#SVGID_00000027587593822600950610000016519973731192430487_);}
	.st57{fill:url(#SVGID_00000182490364234193814790000007321413142285938072_);}
	.st58{fill:url(#SVGID_00000061444935805040185640000009853713800198671765_);}
	.st59{fill:url(#SVGID_00000038392715639671489580000008066057171044221343_);}
	.st60{fill:url(#SVGID_00000049209463092414506470000016971537974554250881_);}
	.st61{fill:url(#SVGID_00000003799315390444625450000004896245161706760127_);}
	.st62{fill:url(#SVGID_00000057843058194452428140000010203174274482122113_);}
	.st63{fill:url(#SVGID_00000010304449591582938790000001797200988634055589_);}
	.st64{fill:url(#SVGID_00000062164483917965366040000016634227426439368593_);}
	.st65{fill:url(#SVGID_00000033329089577019071300000012835654067739249559_);}
	.st66{fill:url(#SVGID_00000034080568898472959070000009217672207258577849_);}
	.st67{fill:url(#SVGID_00000173120296076103863410000013575354298539088312_);}
	.st68{fill:url(#SVGID_00000089573559759270420160000015703144549977101725_);}
	.st69{fill:url(#SVGID_00000176729028453209785730000007905511602298451375_);}
	.st70{fill:url(#SVGID_00000014600665292636899290000008890753246604462774_);}
	.st71{fill:url(#SVGID_00000070836883616595943470000014403138690632979868_);}
	.st72{fill:url(#SVGID_00000109732890626146490480000015161380953012337792_);}
	.st73{fill:url(#SVGID_00000103236399703726250040000000007871394279935372_);}
	.st74{fill:url(#SVGID_00000041995360596433683310000007408273576085541010_);}
	.st75{fill:url(#SVGID_00000103256651032991858030000006628144172996524686_);}
	.st76{fill:url(#SVGID_00000108297759967736618070000012053351530252611253_);}
	.st77{fill:url(#SVGID_00000019662645325420878540000014419240204376757123_);}
	.st78{fill:url(#SVGID_00000068648557468643135680000006998922446059722141_);}
	.st79{fill:url(#SVGID_00000083057967947006139810000014649091229605821844_);}
	.st80{fill:url(#SVGID_00000084489642222578168410000013635346683472179631_);}
</style>
<g id="Background" class="st0">
	<g class="st1">
		<g>
			<rect class="st2" width="3710" height="3710"/>
		</g>
	</g>
</g>
<g id="Illustration">
	<g>
		<linearGradient id="SVGID_1_" gradientUnits="userSpaceOnUse" x1="3594.0818" y1="4071.2961" x2="1109.557" y2="985.6721">
			<stop  offset="0" style="stop-color:#DAE3FE"/>
			<stop  offset="1" style="stop-color:#E9EFFD"/>
		</linearGradient>
		<path class="st3" d="M2910.57,2854.44c-57.07,60.08-111.07,98.82-153.73,129.43c-501.49,359.82-1094.89,254.94-1221,229.32
			c-186.23-37.82-546.21-110.94-806.47-417c-393.75-463.04-332.44-1192.55-27.02-1674.1c55.87-88.09,350.96-576.98,950.75-655.38
			c362.98-47.45,786.11,48.25,1092.52,304.96C3388.83,1310.55,3343.04,2399.15,2910.57,2854.44z"/>
		<g>
			<g>
				<g>
					<path class="st4" d="M502.92,1402.58c-2.74-1.26-4.65-4-4.66-7.16c-0.04-10.4,0.14-20.98,0.53-31.44
						c0.16-4.3,3.83-7.59,8.19-7.35c10.58,0.51,6.98,10.85,7.08,39c0.02,4.3-3.51,7.74-7.88,7.68
						C505.02,1403.3,503.92,1403.04,502.92,1402.58z"/>
					<path class="st4" d="M508.84,1266.64c3.34-19.71,7.52-39.52,12.42-58.88c1.05-4.16,5.34-6.63,9.58-5.52
						c11.53,3.09,3.44,9.15-6.4,67.22c-0.72,4.23-4.79,7.03-9.1,6.25C510.97,1274.91,508.13,1270.81,508.84,1266.64z
						 M551.22,1114.81c7.37-18.67,15.62-37.39,24.25-55c4.62-9.47,18.71-2.1,14.26,6.96c-8.59,17.56-16.55,35.62-23.76,53.9
						c-1.57,3.99-6.15,5.9-10.22,4.28C551.64,1123.32,549.67,1118.76,551.22,1114.81z M623.96,975.09
						c11.02-16.64,22.85-33.05,35.19-48.77c6.36-8.1,18.9,1.59,12.58,9.66c-12.08,15.41-23.68,31.49-34.48,47.79
						C631.57,992.33,618.29,983.63,623.96,975.09z M724.51,864.43c-3.11-3.07-3.14-8.01-0.07-11.01
						c14.29-14.01,29.34-27.63,44.74-40.48c7.92-6.61,18.26,5.35,10.35,11.96c-15.09,12.6-29.84,25.94-43.84,39.66
						C732.62,867.56,727.6,867.51,724.51,864.43z M846.2,765.75c-2.42-3.62-1.43-8.44,2.21-10.76c16.95-10.8,34.55-21.07,52.3-30.52
						c9.14-4.84,16.84,8.87,7.7,13.74c-17.4,9.26-34.64,19.32-51.25,29.9C853.53,770.44,848.62,769.38,846.2,765.75z M990.19,698.11
						c-1.8-0.83-3.29-2.31-4.09-4.26c-1.63-4.02,0.33-8.52,4.38-10.06c18.89-7.16,38.28-13.67,57.66-19.34
						c4.17-1.22,8.6,1.13,9.92,5.26c1.31,4.13-1,8.46-5.17,9.68c-18.98,5.56-37.99,11.94-56.5,18.96
						C994.3,699.12,992.08,698.98,990.19,698.11z M1142.86,657.39c-2.3-1.06-4.06-3.17-4.54-5.8c-0.77-4.25,2.08-8.25,6.38-8.94
						c20-3.21,40.4-5.67,60.63-7.33c4.34-0.36,8.22,2.83,8.65,7.12c0.44,4.28-2.73,8.05-7.08,8.4c-19.82,1.62-39.8,4.04-59.4,7.18
						C1145.87,658.3,1144.26,658.04,1142.86,657.39z M1296.62,640.91c0.12-4.3,3.76-7.62,8.12-7.43c20.3,0.9,40.86,2.61,61.1,5.08
						c10.43,1.3,8.69,16.72-1.68,15.46c-19.83-2.42-39.97-4.1-59.86-4.98C1299.95,648.85,1296.5,645.22,1296.62,640.91z
						 M1790.49,845.3c-44.73-39.46-55.41-39.63-48.23-48.96c2.61-3.4,7.56-4.01,11.06-1.39c16.29,12.27,32.3,25.33,47.59,38.82
						C1808.77,840.69,1798.37,852.24,1790.49,845.3z M1454.37,662.44c1.01-4.17,5.27-6.68,9.52-5.61
						c19.76,4.97,39.6,10.77,58.97,17.24c9.96,3.33,5.1,18.07-4.84,14.74c-18.99-6.34-38.43-12.02-57.79-16.9
						C1455.94,670.84,1453.37,666.57,1454.37,662.44z M1662.2,753.4c-51.69-29.66-62.29-27.73-57.21-38.38
						c3.22-6.75,11.46-3.56,10.51-3.59c18.48,8.8,36.81,18.41,54.48,28.54c3.8,2.18,5.14,6.96,2.99,10.66
						C1670.92,754.17,1666.25,755.65,1662.2,753.4z"/>
					<path class="st4" d="M1880,938.56c-16.76-20.65-27.55-28.01-19.48-34.86c3.27-2.78,8.27-2.41,11.16,0.89
						c18.19,20.66,27.46,29.04,19.45,35.3C1888.72,941.77,1882.74,941.93,1880,938.56z"/>
				</g>
				<g>
					<path class="st4" d="M2051.13,1519.14c-3.07-1.42-5.03-4.67-4.6-8.13c1.27-10.16,2.34-20.45,3.18-30.61
						c0.36-4.28,4.17-7.41,8.53-6.98c4.34,0.44,7.59,4.24,7.24,8.52c-0.86,10.36-1.96,20.87-3.25,31.24
						c-0.53,4.26-4.48,7.23-8.81,6.63C2052.61,1519.69,2051.84,1519.46,2051.13,1519.14z"/>
					<path class="st4" d="M940.26,2095.5c-19.72-9.75-39.27-20.43-58.1-31.75c-3.76-2.26-5-7.06-2.77-10.72
						c6.28-10.31,10.04,0.04,67.75,28.56c3.93,1.94,5.57,6.63,3.67,10.47C947.49,2098.78,939.3,2095.47,940.26,2095.5z
						 M1034.52,2126.78c3.82-11.43,10.09-2.05,72.14,13.51c4.26,1.05,6.88,5.31,5.87,9.47c-1.01,4.17-5.27,6.68-9.51,5.62
						c-21.23-5.32-42.58-11.61-63.44-18.7C1035.4,2135.26,1033.17,2130.82,1034.52,2126.78z M793.98,2002.33
						c-17.11-13.73-33.87-28.35-49.8-43.45c-3.17-3.01-3.31-7.94-0.31-11.02c8.46-8.67,9.8,2.22,59.97,42.45
						c3.41,2.74,3.98,7.65,1.26,10.97C802.37,2004.59,797.4,2005.06,793.98,2002.33z M1206.16,2173.77c-3-1.38-4.95-4.52-4.62-7.93
						c0.42-4.27,4.28-7.35,8.62-6.86c21.39,2.39,43.09,3.9,64.5,4.5c4.38,0.12,7.87,3.71,7.82,8c-0.05,4.3-3.62,7.69-7.99,7.57
						c-21.86-0.61-44.01-2.15-65.84-4.59C1207.77,2174.36,1206.93,2174.12,1206.16,2173.77z M1377.09,2174.11
						c-2.42-1.12-4.24-3.41-4.6-6.21c-0.55-4.27,2.52-8.12,6.85-8.59c21.26-2.29,42.68-5.51,63.68-9.57
						c4.27-0.83,8.47,1.93,9.38,6.15c0.91,4.22-1.81,8.31-6.08,9.14c-21.43,4.14-43.29,7.43-64.99,9.77
						C1379.82,2174.96,1378.37,2174.7,1377.09,2174.11z M1543.31,2137.48c-1.88-0.87-3.43-2.45-4.19-4.53
						c-1.48-4.07,0.65-8.5,4.75-9.89c20.17-6.83,40.29-14.59,59.8-23.07c3.97-1.72,8.66,0.07,10.48,4.01
						c1.82,3.94,0.08,8.54-3.89,10.26c-19.91,8.65-40.44,16.57-61.02,23.54C1547.23,2138.49,1545.12,2138.32,1543.31,2137.48z
						 M1696.86,2065.89c-1.36-0.63-2.56-1.64-3.42-2.98c-2.34-3.67-1.25-8.47,2.44-10.71c18.11-11.01,35.96-22.94,53.05-35.43
						c3.48-2.54,8.43-1.8,11.08,1.68c2.64,3.47,1.97,8.34-1.51,10.88c-17.44,12.75-35.65,24.92-54.14,36.16
						C1702.02,2066.91,1699.21,2066.97,1696.86,2065.89z M1827.99,1961.11c-8.69-8.69,2.32-9.53,43.65-57.2
						c6.73-7.77,18.84,2.47,12.1,10.24c-14.1,16.26-29.09,32.12-44.57,47.14C1836.1,1964.26,1831.1,1964.21,1827.99,1961.11z
						 M1936.04,1832.22c-10.4-6.62,0.06-9.76,29.6-65.46c4.79-9.03,18.86-1.68,14.04,7.4c-10.08,19.01-21.09,37.78-32.74,55.81
						C1944.58,1833.62,1939.63,1834.55,1936.04,1832.22z M2011.64,1682.43c-3.72-1.71-5.59-5.96-4.19-9.78
						c7.24-19.88,13.68-40.23,19.16-60.47c1.12-4.14,5.45-6.54,9.67-5.37c4.23,1.2,6.73,5.48,5.61,9.62
						c-5.59,20.66-12.17,41.42-19.55,61.7c-1.46,4.03-5.99,6.06-10.1,4.55C2012.03,1682.6,2011.83,1682.52,2011.64,1682.43z"/>
					<path class="st4" d="M671.25,1879.64c-17.24-21.48-26.09-30.24-17.78-36.12c8.64-6.13,12.47,4.59,30.12,26.6
						c2.73,3.4,2.18,8.3-1.22,10.93C678.95,1883.67,673.98,1883.04,671.25,1879.64z"/>
				</g>
				<g>
					<path class="st4" d="M771.46,1689.57l113.19-5.95c31.34,42.63,69.72,80.77,114.33,112.43c-3.28,108.5-11.2,115.88,0.09,120.55
						l126.26,52.23c3.69,1.52,7.92,0.59,10.52-2.32l74.33-83.1c53.9,9.09,107.93,9.18,160.14,1.11l76.08,84.25
						c2.67,2.95,6.91,3.94,10.57,2.47l125.22-50.4c3.66-1.47,5.93-5.09,5.65-9l-8.01-111.64c42.73-30.14,80.77-67.3,112.14-110.7
						l113.25,7.59c3.97,0.27,7.63-1.98,9.12-5.58l50.83-123.51c1.49-3.61,0.47-7.79-2.54-10.41l-85.65-74.69
						c8.29-52.96,7.45-106.2-1.66-157.78c80.7-73.51,91.26-72.83,86.52-83.87c-54.46-120.97-50.18-130.64-62.58-129.99l-113.19,5.95
						c-31.34-42.63-69.72-80.77-114.33-112.43c3.28-108.44,11.21-115.88-0.09-120.55c-126.34-49.74-128.8-58.85-136.79-49.91
						l-74.33,83.1c-53.9-9.09-107.93-9.19-160.14-1.11c-75.1-79.81-75.35-91.26-86.64-86.72c-123.03,52.06-131.73,47.34-130.87,59.4
						l8.01,111.64c-42.73,30.14-80.77,67.3-112.14,110.71c-108.26-5.03-117.74-13.29-122.38-2.01
						c-48.08,123.09-57.55,125.84-48.29,133.92l85.65,74.69c-8.29,52.95-7.44,106.19,1.66,157.78
						c-80.42,73.26-91.28,72.78-86.52,83.87C763.34,1680.55,759.06,1690.22,771.46,1689.57z"/>
					<g>
						<path class="st5" d="M1153.86,1380.51c9.88-71.26,76.91-120.31,149.42-109.33c72.5,11,123.46,77.88,113.59,149.14
							c-9.88,71.26-76.91,120.31-149.42,109.33l0,0C1194.92,1518.68,1143.98,1451.75,1153.86,1380.51z M1269.05,1518.1l0.07,0.03
							L1269.05,1518.1z M1300.07,1294.28c-58.85-8.91-114.48,30.39-122.71,89.79c-8.12,58.53,33.73,113.49,93.29,122.49
							c59.55,9.01,114.6-31.27,122.72-89.79C1401.49,1358.15,1359.52,1303.26,1300.07,1294.28z"/>
					</g>
					<path class="st5" d="M1148.05,1702.32L1148.05,1702.32c-17.88-8.24-35.05-17.95-51.17-28.98c-4.85-3.31-6.5-9.48-4.18-14.53
						c0.28-0.6,0.61-1.19,1-1.75c3.67-5.28,11.06-6.54,16.47-2.85c18.54,12.68,38.58,23.5,59.54,32.18l0,0
						c157.9,65.32,337.51-3.77,406.8-154.11c1.77-3.84,3.46-7.73,5.09-11.68c65.58-159.37-13.81-341.83-175.46-408.75
						c-161.44-66.78-346.4,6.87-411.88,165.79c-38.92,94.61-15.5,161.61-19.97,171.32c-4.83,10.49-20.69,8.1-22.53-3.34
						c-10.04-62.51-2.15-128.6,25.97-189.63c121.35-263.31,507.52-252.54,623.27,17.12c35.62,82.99,36.55,174.11,2.61,256.6
						c-1.75,4.27-3.59,8.49-5.51,12.66c-35.18,76.36-97.5,135.52-176.79,167.44c-83.62,33.66-176.11,32.98-260.43-1.9
						C1156.55,1706.14,1152.27,1704.27,1148.05,1702.32z"/>
				</g>
			</g>
			<g>
				<path class="st4" d="M2133.65,1207.47c19.13,22.55,42,42.22,68.06,57.92l1.27,63.27c0.14,7.02,6.14,4.31,75.9,28.16
					c6.46,2.08,5.74-3.95,43.76-52.43c30.33,2.49,60.37-0.11,89.08-7.24l45.67,43.87c5.08,4.87,7.39-1.3,73.58-33.75
					c1.98-1.01,3.09-3.17,2.78-5.36l-8.92-62.69c22.55-19.13,42.22-42,57.92-68.07c60.44-2.48,66,1.7,68.12-4.88
					c21.83-71.99,26.95-73.95,21.49-78.05l-50.61-38c2.49-30.33-0.11-60.38-7.24-89.08l43.87-45.67c4.87-5.06-1.3-7.39-33.75-73.58
					c-3.07-6.01-6.58-1.3-68.06,6.14c-19.13-22.55-41.99-42.22-68.06-57.92l-1.27-63.27c-0.14-7.03-6.14-4.31-75.9-28.16
					c-6.42-2.07-5.55,3.7-43.75,52.44c-30.33-2.49-60.38,0.11-89.08,7.24l-45.67-43.87c-1.6-1.54-4-1.89-5.98-0.88l-67.6,34.63
					c-1.97,1.01-3.09,3.17-2.78,5.36l8.92,62.69c-22.55,19.13-42.22,41.99-57.92,68.07c-60.44,2.48-66-1.7-68.12,4.88
					c-21.82,71.96-26.96,73.94-21.49,78.05l50.61,38c-2.49,30.33,0.11,60.38,7.24,89.08c-40.99,44.49-47.91,45.47-44.75,51.64
					l34.63,67.6C2068.69,1219.66,2072.49,1214.88,2133.65,1207.47z"/>
				<g>
					<g>
						<path class="st5" d="M2266.01,1022.63c2.84-43.71,40.5-76.8,84.22-73.97c43.7,2.83,76.8,40.5,73.97,84.21
							c-2.83,43.61-40.61,76.79-84.22,73.97l0,0C2296.37,1104.02,2263.19,1066.25,2266.01,1022.63z M2340.74,1095.06l0.07,0.03
							L2340.74,1095.06z M2289.58,1024.15c-1.98,30.62,21.32,57.14,51.92,59.12l0,0c49.16,3.18,78.03-55.09,45.4-92.23
							C2354.43,954.07,2292.79,974.68,2289.58,1024.15z"/>
					</g>
					<g>
						<path class="st4" d="M1947.29,1146.32c-3.05-10.2-5.73-20.66-7.97-31.09c-0.91-4.25,1.79-8.44,6.04-9.35
							c10.7-2.3,9.18,9.65,17.02,35.94c1.25,4.17-1.13,8.55-5.29,9.8C1952.94,1152.86,1948.54,1150.51,1947.29,1146.32z"/>
						<path class="st4" d="M1930.45,1010.34c0.88-20.89,3.38-42.64,7.72-64.4c2.04-10.24,17.48-7.1,15.44,3.09
							c-11.27,56.38-2.47,70.08-15.64,69.52C1933.6,1018.35,1930.27,1014.66,1930.45,1010.34z M1975.4,856.69
							c-3.91-1.9-5.54-6.62-3.64-10.53c9.44-19.39,20.5-38.21,32.88-55.93c5.97-8.53,18.88,0.48,12.91,9.02
							c-11.91,17.04-22.55,35.14-31.63,53.8C1982.59,859.92,1974.45,856.67,1975.4,856.69z M2077.15,725.43
							c-1-0.46-1.92-1.14-2.68-2.03c-2.83-3.31-2.44-8.27,0.86-11.11c16.41-14.04,34.04-26.9,52.41-38.21
							c3.7-2.28,8.56-1.12,10.83,2.57c2.28,3.7,1.13,8.56-2.57,10.83c-17.67,10.89-34.64,23.26-50.43,36.77
							C2083.16,726.32,2079.86,726.67,2077.15,725.43z M2222.61,645.39c-1.97-0.91-3.55-2.62-4.24-4.85
							c-1.28-4.16,1.06-8.56,5.22-9.83c20.64-6.32,41.94-11.06,63.33-14.06c4.31-0.6,8.29,2.4,8.9,6.71c0.6,4.3-2.4,8.29-6.71,8.89
							c-20.57,2.89-41.06,7.44-60.91,13.52C2226.29,646.36,2224.31,646.17,2222.61,645.39z M2383.43,622.23
							c0.49-4.32,4.39-7.43,8.71-6.94c21.52,2.44,42.95,6.57,63.7,12.29c10.02,2.71,5.89,17.95-4.19,15.18
							c-19.96-5.5-40.58-9.48-61.28-11.82C2385.95,630.42,2382.96,626.46,2383.43,622.23z"/>
						<path class="st4" d="M2571.45,698.61c-23.79-16.39-34.27-18.08-28.93-27.28c2.18-3.76,6.92-5.11,10.76-2.86
							c9.18,5.32,18.3,11.1,27.11,17.17c3.58,2.47,4.48,7.37,2.01,10.95C2579.97,700.12,2575.11,701.11,2571.45,698.61z"/>
					</g>
					<g>
						<path class="st4" d="M2741.3,976.76c-3.68-28.76-9.4-37.61,1.01-39.77c4.26-0.89,8.42,1.85,9.31,6.11
							c2.16,10.39,3.94,21.05,5.3,31.66c0.55,4.31-2.5,8.26-6.81,8.81C2745.8,984.13,2741.85,981.08,2741.3,976.76z"/>
						<path class="st4" d="M2209.36,1411.77c4.11-12.42,13.42,0.37,69.53,9.74c10.25,1.69,7.71,17.25-2.59,15.53
							c-20.98-3.5-41.82-8.66-61.94-15.32C2210.3,1420.39,2207.97,1415.95,2209.36,1411.77z M2371.2,1434.17
							c-0.35-4.33,2.87-8.14,7.21-8.49c57.18-4.7,66.99-16.69,70.08-3.93c1.02,4.23-1.58,8.48-5.81,9.5
							c-20.62,4.98-41.81,8.39-62.99,10.12C2375.36,1441.73,2371.56,1438.51,2371.2,1434.17z M2528.79,1391.28
							c-6.14-11.59,9.4-9.37,55.11-43.49c8.35-6.22,17.78,6.39,9.42,12.62c-17.03,12.71-35.16,24.2-53.88,34.13
							C2535.6,1396.58,2530.83,1395.13,2528.79,1391.28z M2656.86,1289.86c-10.21-8.28,5.02-12.31,33.69-61.6
							c5.23-9,18.86-1.1,13.62,7.92c-10.67,18.34-22.85,36-36.23,52.52C2665.19,1292.08,2660.24,1292.59,2656.86,1289.86z
							 M2729.43,1136.59c15.58-55.17,7.79-68.64,20.85-67.04c4.32,0.52,7.39,4.45,6.87,8.77c-2.58,21.14-6.8,42.19-12.56,62.56
							c-1.18,4.18-5.53,6.62-9.72,5.44C2730.69,1145.12,2728.24,1140.78,2729.43,1136.59z"/>
						<path class="st4" d="M2120.62,1376.88c-8.96-5.78-17.81-11.97-26.28-18.41c-3.46-2.63-4.14-7.57-1.51-11.04
							c6.63-8.72,13.21,1.31,36.32,16.2c3.65,2.36,4.71,7.23,2.35,10.89C2129.12,1378.23,2124.21,1379.2,2120.62,1376.88z"/>
					</g>
					<path class="st5" d="M2249.04,1195.97c-6.49-3.71-7.8-11.04-4.72-16.37c3.27-5.65,10.55-7.56,16.14-4.31
						c10.48,6.06,21.71,11.05,33.38,14.82c2.55,0.31,62.57,24.26,130.81-10.58c135.33-69.34,119.34-269.11-25.55-315.81
						c-83.35-26.88-172.56,13.69-208.33,91.34c-36.03,78.2,4.7,118.88-20.23,124.65c-6.35,1.48-12.7-2.48-14.18-8.83
						c-7.96-34.28-6.43-70.18,4.43-103.84c32.94-102.21,143.02-158.86,245.56-125.8c110.34,35.57,166.64,160.31,117.16,267.69
						c-39.9,86.61-140.26,134.84-236.93,103.66l0,0C2273.51,1208.36,2260.87,1202.77,2249.04,1195.97z"/>
				</g>
			</g>
		</g>
		<g>
			
				<linearGradient id="SVGID_00000133525965955843061740000016214554547897713039_" gradientUnits="userSpaceOnUse" x1="2137.7273" y1="1461.0786" x2="2103.4854" y2="1687.0759">
				<stop  offset="0" style="stop-color:#09005D"/>
				<stop  offset="1" style="stop-color:#1A0F91"/>
			</linearGradient>
			<path style="fill:url(#SVGID_00000133525965955843061740000016214554547897713039_);" d="M2216.74,1478.39
				c-0.3-3.69-4.07-6.88-10.45-9.45c6.94-3.83,10.77-7.92,10.45-11.95c-0.98-12.17-39.51-18.99-86.06-15.23
				c-46.55,3.75-83.49,16.66-82.51,28.82c0.3,3.69,4.07,6.88,10.45,9.45c-6.94,3.83-10.77,7.92-10.45,11.95
				c0.3,3.69,4.07,6.88,10.45,9.45c-6.94,3.82-10.77,7.92-10.45,11.94c0.3,3.69,4.07,6.88,10.45,9.45
				c-6.94,3.83-10.77,7.92-10.45,11.95c0.43,5.38,8.22,9.71,20.79,12.55c-0.16,3.98-0.07,8.33,0.32,13.15
				c1.82,22.42,27.04,40,60.39,40c33.35,0,62.22-23.97,62.55-46.46c0.08-5.51-0.15-10.36-0.65-14.67
				c15.96-5.33,25.68-11.84,25.17-18.15c-0.3-3.69-4.07-6.88-10.45-9.44c6.94-3.82,10.77-7.92,10.45-11.95
				c-0.3-3.69-4.07-6.88-10.45-9.44C2213.22,1486.51,2217.06,1482.41,2216.74,1478.39z"/>
			<g>
				
					<linearGradient id="SVGID_00000181071621608754838470000006250441601731611268_" gradientUnits="userSpaceOnUse" x1="2145.2954" y1="1367.3778" x2="2086.1628" y2="2019.5308">
					<stop  offset="0" style="stop-color:#53D8FF"/>
					<stop  offset="1" style="stop-color:#3840F7"/>
				</linearGradient>
				<path style="fill:url(#SVGID_00000181071621608754838470000006250441601731611268_);" d="M2109.14,1552.15
					c-13.82,0-26.47-1.02-36.92-3.02c-0.61-0.12-1-0.7-0.89-1.31c0.12-0.61,0.7-1,1.31-0.89c16.35,3.13,38.2,3.82,61.5,1.94
					c19.07-1.54,36.91-4.61,51.58-8.9c0.59-0.17,1.21,0.17,1.39,0.76c0.17,0.59-0.17,1.21-0.76,1.39
					c-14.82,4.32-32.81,7.43-52.03,8.98C2125.66,1551.81,2117.2,1552.15,2109.14,1552.15z"/>
				
					<linearGradient id="SVGID_00000081625927176704397060000013491585730290480018_" gradientUnits="userSpaceOnUse" x1="2147.0195" y1="1367.5334" x2="2087.8867" y2="2019.6887">
					<stop  offset="0" style="stop-color:#53D8FF"/>
					<stop  offset="1" style="stop-color:#3840F7"/>
				</linearGradient>
				<path style="fill:url(#SVGID_00000081625927176704397060000013491585730290480018_);" d="M2109.37,1530.74
					c-17.96,0-34.01-1.69-45.33-4.91c-0.59-0.17-0.94-0.79-0.77-1.38c0.17-0.59,0.79-0.94,1.38-0.77
					c16.13,4.59,42.11,6.02,69.49,3.81c27.08-2.18,52.34-7.68,67.57-14.7c0.56-0.26,1.23-0.01,1.48,0.55
					c0.26,0.56,0.01,1.22-0.55,1.48c-15.45,7.13-40.99,12.7-68.32,14.9C2125.79,1530.41,2117.39,1530.74,2109.37,1530.74z"/>
				
					<linearGradient id="SVGID_00000017506575296640963080000009596041568414751410_" gradientUnits="userSpaceOnUse" x1="2143.7512" y1="1367.2374" x2="2084.6187" y2="2019.391">
					<stop  offset="0" style="stop-color:#53D8FF"/>
					<stop  offset="1" style="stop-color:#3840F7"/>
				</linearGradient>
				<path style="fill:url(#SVGID_00000017506575296640963080000009596041568414751410_);" d="M2109.14,1509.37
					c-19.39,0-36.36-1.98-47.79-5.75c-0.59-0.19-0.91-0.83-0.71-1.41c0.19-0.59,0.82-0.91,1.41-0.71
					c15.9,5.24,42.84,6.96,72.08,4.61c27.08-2.18,52.34-7.68,67.57-14.7c0.56-0.26,1.23-0.01,1.48,0.55
					c0.26,0.56,0.01,1.22-0.55,1.48c-15.45,7.13-41,12.7-68.32,14.9C2125.66,1509.03,2117.19,1509.37,2109.14,1509.37z"/>
				
					<linearGradient id="SVGID_00000110457678344663933350000000716554920959335328_" gradientUnits="userSpaceOnUse" x1="2145.5103" y1="1367.3966" x2="2086.3774" y2="2019.5518">
					<stop  offset="0" style="stop-color:#53D8FF"/>
					<stop  offset="1" style="stop-color:#3840F7"/>
				</linearGradient>
				<path style="fill:url(#SVGID_00000110457678344663933350000000716554920959335328_);" d="M2109.29,1487.97
					c-15.38,0-29.37-1.24-40.25-3.66c-0.6-0.13-0.98-0.73-0.85-1.33c0.13-0.6,0.73-0.98,1.33-0.85c16.36,3.63,39.91,4.58,64.62,2.58
					c26.84-2.16,51.97-7.6,67.22-14.54c0.56-0.26,1.22-0.01,1.48,0.55c0.26,0.56,0.01,1.22-0.55,1.48
					c-15.47,7.04-40.88,12.55-67.97,14.74C2125.76,1487.63,2117.34,1487.97,2109.29,1487.97z"/>
			</g>
			
				<linearGradient id="SVGID_00000069394069468924237000000001879208964097918594_" gradientUnits="userSpaceOnUse" x1="2163.4663" y1="903.6233" x2="2072.2368" y2="1521.9578">
				<stop  offset="0" style="stop-color:#FF928E"/>
				<stop  offset="1" style="stop-color:#FE7062"/>
			</linearGradient>
			<path style="fill:url(#SVGID_00000069394069468924237000000001879208964097918594_);" d="M2016.93,1370.41
				c-5.65-20.02-15.26-38.74-28.19-55.04c-27.71-34.92-72.92-105.95-78.48-202.88c-8.09-141,116.95-211.59,231.06-202
				c114.11,9.58,226.7,94.55,214.38,225.72c-7.58,80.71-52.76,141.93-86.39,177.08c-21.36,22.32-36.59,49.67-44.84,79.44
				c-10.09,36.44-34.11,81.86-91.21,84.63C2059.38,1480.95,2028.7,1412.08,2016.93,1370.41z"/>
			
				<linearGradient id="SVGID_00000091701947661412302080000003864959703528312233_" gradientUnits="userSpaceOnUse" x1="3004.3259" y1="160.2487" x2="2593.7917" y2="732.9688">
				<stop  offset="0" style="stop-color:#E1473D"/>
				<stop  offset="1" style="stop-color:#E9605A"/>
			</linearGradient>
			<path style="fill:url(#SVGID_00000091701947661412302080000003864959703528312233_);" d="M2152.13,1449.25l39.93-259.68
				c0.82-5.36,3.47-8.97,5.9-8.05c2.43,0.92,3.73,6.02,2.91,11.38c-0.02,0.14-0.05,0.32-0.08,0.46l-45.48,257.27
				c-0.34,1.93-1.32,3.16-2.19,2.73C2152.27,1452.94,2151.85,1451.12,2152.13,1449.25z"/>
			
				<linearGradient id="SVGID_00000128458918336984293900000001084271272134329494_" gradientUnits="userSpaceOnUse" x1="2947.325" y1="119.3908" x2="2536.7913" y2="692.1105">
				<stop  offset="0" style="stop-color:#E1473D"/>
				<stop  offset="1" style="stop-color:#E9605A"/>
			</linearGradient>
			<path style="fill:url(#SVGID_00000128458918336984293900000001084271272134329494_);" d="M2110.69,1451.31l-39.93-259.68
				c-0.83-5.36-3.47-8.97-5.9-8.05c-2.43,0.92-3.73,6.02-2.91,11.38c0.02,0.14,0.05,0.32,0.08,0.46l45.48,257.27
				c0.34,1.93,1.32,3.16,2.19,2.73C2110.55,1455.01,2110.97,1453.18,2110.69,1451.31z"/>
			<path class="st2" d="M2191.77,1167.27c-1.01-1.63-3.36-2.24-5.24-1.36l-22.23,10.39l-7.72-21.99c-0.41-1.15-1.35-2.16-2.7-2.72
				c-2.56-1.05-5.62-0.11-6.83,2.11l-0.04,0.07l-18.28,33.34l-16.97-47.46l-0.03-0.08c-0.42-1.16-1.29-2.2-2.57-2.9
				c-2.84-1.55-6.6-0.81-8.39,1.65l-25.56,35.19c-1.04,1.44-0.68,3.37,0.9,4.44c1.69,1.14,4.12,0.87,5.44-0.59l22.51-25.1
				l20.26,45.14l0.02,0.03c0.33,0.72,0.94,1.35,1.79,1.75c1.9,0.89,4.27,0.28,5.3-1.37l19.55-31.38l7.36,15.87l0.06,0.14
				c0.05,0.11,0.11,0.23,0.18,0.34c1.01,1.63,3.36,2.24,5.24,1.36l26.39-12.33C2192.08,1170.93,2192.79,1168.9,2191.77,1167.27z"/>
			<path class="st2" d="M2270.18,1279.82c-1.05,0-2.11-0.32-3.02-1c-2.25-1.67-2.72-4.84-1.05-7.09
				c6.8-9.16,13.03-18.62,18.52-28.13c1.4-2.42,4.5-3.25,6.92-1.85c2.42,1.4,3.26,4.5,1.85,6.92c-5.68,9.84-12.13,19.64-19.16,29.11
				C2273.26,1279.11,2271.73,1279.82,2270.18,1279.82z"/>
			<path class="st2" d="M2303.02,1223.45c-0.67,0-1.36-0.14-2.02-0.42c-2.57-1.12-3.75-4.1-2.63-6.67
				c42.19-97.16,5.8-178.71,5.43-179.53c-1.17-2.54-0.05-5.55,2.49-6.72c2.55-1.16,5.56-0.05,6.72,2.49
				c1.6,3.48,38.63,86.52-5.35,187.79C2306.85,1222.31,2304.98,1223.45,2303.02,1223.45z"/>
		</g>
		<g>
			<g>
				
					<linearGradient id="SVGID_00000136392721347219609700000017167102859377878680_" gradientUnits="userSpaceOnUse" x1="6652.8403" y1="3023.9963" x2="6049.4673" y2="3680.2976" gradientTransform="matrix(1 9.500000e-03 -9.500000e-03 1 -4973.9507 -63.4747)">
					<stop  offset="0" style="stop-color:#09005D"/>
					<stop  offset="1" style="stop-color:#1A0F91"/>
				</linearGradient>
				<path style="fill:url(#SVGID_00000136392721347219609700000017167102859377878680_);" d="M1458.97,3070.79
					c0,0-6.59,35.32-9.98,70.31c-1.33,13.67,9.11,25.66,22.83,26.36c46.62,2.39,146.33,7.12,182.14,5.86
					c5.38-0.19,8.95-5.66,7.01-10.69l0,0c-1.63-4.21-4.81-7.63-8.9-9.56l-164.05-77.3L1458.97,3070.79z"/>
				
					<linearGradient id="SVGID_00000081639566768855139310000012407117433743210629_" gradientUnits="userSpaceOnUse" x1="6456.9946" y1="3072.7349" x2="6510.5894" y2="3072.7349" gradientTransform="matrix(1 9.500000e-03 -9.500000e-03 1 -4973.9507 -63.4747)">
					<stop  offset="0" style="stop-color:#FEBBBA"/>
					<stop  offset="1" style="stop-color:#FF928E"/>
				</linearGradient>
				<path style="fill:url(#SVGID_00000081639566768855139310000012407117433743210629_);" d="M1454.05,3049.96l4.62,42.36
					c0,0,28.74,13.71,48.59-1.23l-11.5-47.27L1454.05,3049.96z"/>
				
					<linearGradient id="SVGID_00000150814920111195008310000003090178133449487278_" gradientUnits="userSpaceOnUse" x1="6700.3823" y1="2281.7405" x2="6186.9351" y2="2977.6521" gradientTransform="matrix(1 9.500000e-03 -9.500000e-03 1 -4973.9507 -63.4747)">
					<stop  offset="0" style="stop-color:#09005D"/>
					<stop  offset="1" style="stop-color:#1A0F91"/>
				</linearGradient>
				<path style="fill:url(#SVGID_00000150814920111195008310000003090178133449487278_);" d="M1465.41,2254.47
					c-2.27,11.03-16.9,551.32,38.55,794.04c0.9,3.96-1.14,8.01-4.91,9.51c-8.89,3.53-26.31,8.61-47.13,9.11
					c-6.45,0.16-12.19-4.09-13.95-10.29c-15.97-56.34-92.41-338.6-100.16-607.62c-8.67-300.6,0.1-10.23,0.1-10.23l8.54-185.68
					L1465.41,2254.47z"/>
				
					<linearGradient id="SVGID_00000105392330894307846930000016121522970074452670_" gradientUnits="userSpaceOnUse" x1="6517.4834" y1="2899.5339" x2="5914.0854" y2="3555.8623" gradientTransform="matrix(1 9.500000e-03 -9.500000e-03 1 -4973.9507 -63.4747)">
					<stop  offset="0" style="stop-color:#09005D"/>
					<stop  offset="1" style="stop-color:#1A0F91"/>
				</linearGradient>
				<path style="fill:url(#SVGID_00000105392330894307846930000016121522970074452670_);" d="M1269.25,3087.44
					c0,0-10.12,17.76-20.2,65.13c-1.82,8.55,4.09,16.81,12.78,17.75c15.38,1.66,39.07,3.83,58.06,3.89
					c8.75,0.02,15.66-7.53,14.69-16.23c-1.94-17.34-8.22-45.82-28.25-68.17L1269.25,3087.44z"/>
				
					<linearGradient id="SVGID_00000132792075411712900100000009475284515112457395_" gradientUnits="userSpaceOnUse" x1="6263.8335" y1="3069.9785" x2="6310.1064" y2="3069.9785" gradientTransform="matrix(1 9.500000e-03 -9.500000e-03 1 -4973.9507 -63.4747)">
					<stop  offset="0" style="stop-color:#FEBBBA"/>
					<stop  offset="1" style="stop-color:#FF928E"/>
				</linearGradient>
				<path style="fill:url(#SVGID_00000132792075411712900100000009475284515112457395_);" d="M1261.03,3032.93l11.12,64.1
					c0,0,11.52,8.74,34.52,2.7l-4.94-68.9L1261.03,3032.93z"/>
				
					<linearGradient id="SVGID_00000132793698940367327540000007491833976753948580_" gradientUnits="userSpaceOnUse" x1="6608.8721" y1="2214.2249" x2="6095.4302" y2="2910.1292" gradientTransform="matrix(1 9.500000e-03 -9.500000e-03 1 -4973.9507 -63.4747)">
					<stop  offset="0" style="stop-color:#09005D"/>
					<stop  offset="1" style="stop-color:#1A0F91"/>
				</linearGradient>
				<path style="fill:url(#SVGID_00000132793698940367327540000007491833976753948580_);" d="M1236.63,2268.87
					c-49.96,284.66,3.52,704.77,22.13,787.07c1.14,5.04,5.16,8.93,10.25,9.82c8.64,1.52,22.88,2.82,36.97-1.12
					c4.85-1.36,8.3-5.69,8.54-10.73c3.23-66.37,2.44-473.98,48-634.64c2.31-8.14,7.36-15.21,14.31-20.05l86.02-59.92l7.49-98.12
					L1236.63,2268.87z"/>
				<g>
					
						<linearGradient id="SVGID_00000093897811836729122260000015283438727654693780_" gradientUnits="userSpaceOnUse" x1="8202.2969" y1="-1624.0333" x2="7729.23" y2="-804.0492" gradientTransform="matrix(-1 0 0 1 7569.6606 0)">
						<stop  offset="0" style="stop-color:#FF928E"/>
						<stop  offset="1" style="stop-color:#FE7062"/>
					</linearGradient>
					<path style="fill:url(#SVGID_00000093897811836729122260000015283438727654693780_);" d="M1542.81,1731.51
						c-141.55-3.69-298.14,34.33-298.14,34.33c-44.55,245.84-12.44,530.19-12.44,530.19c109.33,29.79,233.41-15.35,233.41-15.35
						c19.2-102.75,106.96-391.6,106.96-391.6c69.25-7.92,126.43-27.34,173.61-53.28c-35.4-41.83-51.77-94.79-58.8-126.07
						C1637.2,1724.82,1586.47,1732.65,1542.81,1731.51z"/>
					
						<linearGradient id="SVGID_00000168830350555718601150000002232179030666283658_" gradientUnits="userSpaceOnUse" x1="6677.5991" y1="1674.4781" x2="6951.4219" y2="1674.4781" gradientTransform="matrix(1 9.500000e-03 -9.500000e-03 1 -4973.9507 -63.4747)">
						<stop  offset="0" style="stop-color:#FEBBBA"/>
						<stop  offset="1" style="stop-color:#FF928E"/>
					</linearGradient>
					<path style="fill:url(#SVGID_00000168830350555718601150000002232179030666283658_);" d="M1962.99,1526.97
						c-13.75-16.93-31.43-9.15-31.43-9.15c-21.67,87.81-131.6,158.12-244.16,191.93c7.03,31.28,23.4,84.24,58.8,126.07
						C1933.46,1732.87,1962.99,1526.97,1962.99,1526.97z"/>
				</g>
				<g>
					
						<linearGradient id="SVGID_00000042721237652301229540000011359731330132179112_" gradientUnits="userSpaceOnUse" x1="3556.3086" y1="1627.6532" x2="3740.0459" y2="2045.6974" gradientTransform="matrix(-1 -9.500000e-03 -9.500000e-03 1 5472.7749 36.7017)">
						<stop  offset="0" style="stop-color:#FEBBBA"/>
						<stop  offset="1" style="stop-color:#FF928E"/>
					</linearGradient>
					<path style="fill:url(#SVGID_00000042721237652301229540000011359731330132179112_);" d="M1959.57,1531.21
						c1.41,4.64-15.51,11.52-25.25-7.49c-0.26-9.07-5.4-47.97,0.09-55.31c29.23-39.07,85.66-87.86,85.66-87.86
						c9.37,9.42,1.49,18.51,1.49,18.51l-27.41,28.02c5.58,10.31,12.42,19.04,15.55,31.48c2.37,9.42,0.77,19.45-4.06,27.96
						c-4.85,8.54-11.45,19.63-17.68,28.31C1976.16,1531.24,1959.57,1531.21,1959.57,1531.21z"/>
					
						<linearGradient id="SVGID_00000083784063682196128640000007544972246720163466_" gradientUnits="userSpaceOnUse" x1="6950.1089" y1="1489.3619" x2="7026.7764" y2="1371.4858" gradientTransform="matrix(1 9.500000e-03 -9.500000e-03 1 -4973.9507 -63.4747)">
						<stop  offset="0" style="stop-color:#FEBBBA"/>
						<stop  offset="1" style="stop-color:#FF928E"/>
					</linearGradient>
					<path style="fill:url(#SVGID_00000083784063682196128640000007544972246720163466_);" d="M1982.09,1445.31l-24.94,20.73
						l-7.97,20.8l21.82,24.68c0,0,7.81-41.35,13.41-50.27C1990.02,1452.35,1987.2,1447.98,1982.09,1445.31z"/>
				</g>
				
					<linearGradient id="SVGID_00000030450960784954026850000009955279050001310345_" gradientUnits="userSpaceOnUse" x1="8363.3984" y1="-1531.1018" x2="7890.3325" y2="-711.1189" gradientTransform="matrix(-1 0 0 1 7569.6606 0)">
					<stop  offset="0" style="stop-color:#FF928E"/>
					<stop  offset="1" style="stop-color:#FE7062"/>
				</linearGradient>
				<path style="fill:url(#SVGID_00000030450960784954026850000009955279050001310345_);" d="M1297.66,1903.45l-52.99-137.6
					c0,0-133.1,88.59-155.93,202.3c24.97,2.08,70.37,9.01,114.67,31.91C1213.69,1946.36,1297.66,1903.45,1297.66,1903.45z"/>
				
					<linearGradient id="SVGID_00000149362117212220132600000002527182719185409188_" gradientUnits="userSpaceOnUse" x1="6078.4209" y1="2062.303" x2="6424.9346" y2="2062.303" gradientTransform="matrix(1 9.500000e-03 -9.500000e-03 1 -4973.9507 -63.4747)">
					<stop  offset="0" style="stop-color:#FEBBBA"/>
					<stop  offset="1" style="stop-color:#FF928E"/>
				</linearGradient>
				<path style="fill:url(#SVGID_00000149362117212220132600000002527182719185409188_);" d="M1411.99,2033.55
					c0,0-149.27,82.49-198.69,10.37c-10.26-14.98-12.6-29.79-9.91-43.86c-44.29-22.9-89.7-29.83-114.67-31.91
					c-6.88,34.28-3.77,70.84,16.06,107.95c86.22,161.36,326.5-5.76,326.5-5.76L1411.99,2033.55z"/>
				
					<linearGradient id="SVGID_00000061474110121189635040000013103242315002836904_" gradientUnits="userSpaceOnUse" x1="6344.5078" y1="1691.8655" x2="6481.5137" y2="1691.8655" gradientTransform="matrix(1 9.500000e-03 -9.500000e-03 1 -4973.9507 -63.4747)">
					<stop  offset="0" style="stop-color:#FEBBBA"/>
					<stop  offset="1" style="stop-color:#FF928E"/>
				</linearGradient>
				<path style="fill:url(#SVGID_00000061474110121189635040000013103242315002836904_);" d="M1400.5,1615.21l-46.29,129.84
					c-0.77,2.15,0.1,4.55,2.09,5.67c12.21,6.91,56.27,26.95,109.9-6.34c5.59-3.47,9.42-9.18,10.33-15.69l15.66-112.61
					L1400.5,1615.21z"/>
				<g>
					
						<linearGradient id="SVGID_00000113313354457781763630000013282326658056654247_" gradientUnits="userSpaceOnUse" x1="-567.9231" y1="2721.1606" x2="-619.1201" y2="2552.3005" gradientTransform="matrix(0.7523 -0.6588 0.6588 0.7523 159.4521 -818.1582)">
						<stop  offset="0" style="stop-color:#FEBBBA"/>
						<stop  offset="1" style="stop-color:#FF928E"/>
					</linearGradient>
					<path style="fill:url(#SVGID_00000113313354457781763630000013282326658056654247_);" d="M1499.67,1495.5
						c0,0,48.58,93.59,41.88,131.14c-6.7,37.55-67.98,34.27-121.22,3.21l-36.45-100.9L1499.67,1495.5z"/>
					
						<linearGradient id="SVGID_00000048492645003696477110000008279274050449271215_" gradientUnits="userSpaceOnUse" x1="-614.1094" y1="2426.9468" x2="-571.284" y2="2671.2104" gradientTransform="matrix(0.7523 -0.6588 0.6588 0.7523 159.4521 -818.1582)">
						<stop  offset="0" style="stop-color:#09005D"/>
						<stop  offset="1" style="stop-color:#1A0F91"/>
					</linearGradient>
					<path style="fill:url(#SVGID_00000048492645003696477110000008279274050449271215_);" d="M1423.16,1580.5
						c2.18-0.94,3.01-3.6,1.73-5.6c-3.91-6.09-11.22-18.51-13.48-29.35c0,0-8.84-5.78,22.76-13.03
						c31.6-7.24,78.72-18.51,88.86-45.25c9.88-26.07-14.8-92.11-55.69-40.07c-1.56,1.98-4.57,2-6.08-0.02
						c-6.54-8.68-23.77-26.73-48.04-16.12c-22.71,9.93-25.42,26.48-25.19,34.83c0.07,2.46-2.15,4.35-4.56,3.86
						c-11.41-2.29-38.83-4.42-51.91,23.6c-10.77,23.08-4.04,36.27,2.14,42.75c2,2.1,1.08,5.52-1.7,6.34
						c-7.54,2.23-17.3,8.51-16.5,26.12c1.11,24.35,28.34,22.47,36.1,21.43c1.27-0.17,2.55,0.28,3.4,1.24
						c6.57,7.41,36.21,38.91,68.56,42.99c2.8,0.35,5-2.4,4.11-5.08l-13.63-40.88c-0.63-1.9,0.29-3.97,2.13-4.76L1423.16,1580.5z"/>
					
						<linearGradient id="SVGID_00000000180208419772782780000006084721905364664193_" gradientUnits="userSpaceOnUse" x1="-620.258" y1="2720.3723" x2="-666.3209" y2="2568.446" gradientTransform="matrix(0.7523 -0.6588 0.6588 0.7523 159.4521 -818.1582)">
						<stop  offset="0" style="stop-color:#FEBBBA"/>
						<stop  offset="1" style="stop-color:#FF928E"/>
					</linearGradient>
					<path style="fill:url(#SVGID_00000000180208419772782780000006084721905364664193_);" d="M1428.74,1586.34
						c0,0-34.99-24.5-37.76-4.18c-2.77,20.32,31.43,29.78,48.49,22.35L1428.74,1586.34z"/>
				</g>
				<g>
					<g>
						
							<linearGradient id="SVGID_00000072999405377862222390000008174607734775402669_" gradientUnits="userSpaceOnUse" x1="6229.9697" y1="1836.3977" x2="6421.1758" y2="2633.0901" gradientTransform="matrix(1 0 0 1 -4705.6621 0)">
							<stop  offset="0" style="stop-color:#09005D"/>
							<stop  offset="1" style="stop-color:#1A0F91"/>
						</linearGradient>
						<path style="fill:url(#SVGID_00000072999405377862222390000008174607734775402669_);" d="M1381.49,2163.92l81.31-283.97
							c0.92-3.22,3.67-5.57,7-5.96c14.73-1.72,57.42-6.55,106.71-10.71c59.37-5.02,128.32-9.09,169.52-5.63
							c5.86,0.49,9.4,6.69,6.79,11.96c-23.43,47.4-119.8,240.22-168.06,303.38c-1.6,2.09-4.07,3.32-6.71,3.29l-188.66-1.76
							C1383.91,2174.46,1379.98,2169.2,1381.49,2163.92z"/>
						
							<linearGradient id="SVGID_00000163774734745970027760000013375289762457103532_" gradientUnits="userSpaceOnUse" x1="6098.9502" y1="2047.1652" x2="6207.2832" y2="2047.1652" gradientTransform="matrix(1 0 0 1 -4705.6621 0)">
							<stop  offset="0" style="stop-color:#FEBBBA"/>
							<stop  offset="1" style="stop-color:#FF928E"/>
						</linearGradient>
						<path style="fill:url(#SVGID_00000163774734745970027760000013375289762457103532_);" d="M1401.13,2095.31
							c0,0-11.33-46.58-6.76-63.1c4.57-16.53,13.42-37.77,42.93-33.05c29.51,4.72,64.32,17.15,64.32,17.15s-1.76,21.52-24.19,14.58
							l13.91,10.76c0,0-1.99,17.23-20.93,8.03l12.93,14.27c0,0-8.14,14.15-22.07,5.08
							C1447.34,2059.95,1440.66,2100.92,1401.13,2095.31z"/>
					</g>
					<path class="st4" d="M1571.1,1948.04c0,13.18,10.69,23.87,23.87,23.87c13.18,0,23.87-10.69,23.87-23.87
						c0-13.18-10.69-23.87-23.87-23.87C1581.78,1924.17,1571.1,1934.86,1571.1,1948.04z"/>
					<path class="st4" d="M1472,1963.78l-6.09-1.8l16.55-56.16c2.7-9.15,10.08-16.02,19.27-17.93
						c52.48-10.96,190.69-13.19,196.54-13.28l0.1,6.35c-1.43,0.02-143.46,2.32-195.34,13.14c-6.89,1.44-12.44,6.61-14.48,13.51
						L1472,1963.78z"/>
				</g>
			</g>
			<g>
				<path class="st32" d="M509.65,2758.48c-8.67,12.83-43.12,303.23-48.51,410.49c-0.37,7.25,5.44,13.3,12.7,13.3l0,0
					c6.26,0,11.59-4.56,12.56-10.75l63.01-403.8L509.65,2758.48z"/>
				<path class="st32" d="M786.63,2758.48c8.67,12.83,43.12,303.23,48.51,410.49c0.37,7.25-5.44,13.3-12.7,13.3l0,0
					c-6.26,0-11.59-4.56-12.56-10.75l-63.01-403.8L786.63,2758.48z"/>
				<path class="st32" d="M457.54,2735.82l-0.03,3.17c-0.21,22.78,19.42,41.47,44,41.89l291.25,4.95
					c24.22,0.41,44.41-17.09,45.59-39.52l0.15-2.9c1.23-23.39-18.64-43.1-43.9-43.55l-291.38-5.22
					C478.28,2694.19,457.75,2712.7,457.54,2735.82z"/>
			</g>
			<g>
				<g>
					<path class="st4" d="M1071.08,3158.42c-51.77,0-74.68-4.44-84.93-8.49c1.99,8.5,9.56,15.21,19.13,15.21h183.16
						c6.17,0,10.06-5.9,8.59-11.25C1176.16,3155.57,1131.81,3158.42,1071.08,3158.42z"/>
					
						<linearGradient id="SVGID_00000169548476495530406600000010350615575380326563_" gradientUnits="userSpaceOnUse" x1="1067.8546" y1="2574.6421" x2="1090.3816" y2="3126.5535">
						<stop  offset="0" style="stop-color:#4F52FF"/>
						<stop  offset="1" style="stop-color:#4042E2"/>
					</linearGradient>
					<path style="fill:url(#SVGID_00000169548476495530406600000010350615575380326563_);" d="M1197.04,3153.89
						c-0.3-1.08-0.73-2.14-1.5-3.12c-13.95-17.81-41.98-45.79-80.11-45.25c-55.85,0.79-75.33,6.84-118.73,0.34l-10.24,33.94
						c-1.04,3.46-1.06,6.92-0.31,10.12c10.24,4.05,33.15,8.49,84.93,8.49C1131.81,3158.42,1176.16,3155.57,1197.04,3153.89z"/>
				</g>
				
					<linearGradient id="SVGID_00000173145982192810720850000015628087525584780716_" gradientUnits="userSpaceOnUse" x1="996.7025" y1="3093.8923" x2="1053.8455" y2="3093.8923">
					<stop  offset="0" style="stop-color:#FEBBBA"/>
					<stop  offset="1" style="stop-color:#FF928E"/>
				</linearGradient>
				<path style="fill:url(#SVGID_00000173145982192810720850000015628087525584780716_);" d="M1009.27,3069.29l-12.57,42.75
					c0,0,27.84,12.68,52.33,2.5l4.81-37.03L1009.27,3069.29z"/>
				<g>
					<path class="st4" d="M1388.9,3131.5c-40.36,32.43-60.99,43.33-71.5,46.6c6.85,5.35,16.94,5.81,24.4-0.18l142.78-114.72
						c4.81-3.86,4.16-10.88-0.32-14.11C1469.04,3063.48,1436.24,3093.46,1388.9,3131.5z"/>
					
						<linearGradient id="SVGID_00000038390154728436421850000011620637762002915238_" gradientUnits="userSpaceOnUse" x1="1369.5428" y1="2562.3284" x2="1392.0698" y2="3114.24">
						<stop  offset="0" style="stop-color:#4F52FF"/>
						<stop  offset="1" style="stop-color:#4042E2"/>
					</linearGradient>
					<path style="fill:url(#SVGID_00000038390154728436421850000011620637762002915238_);" d="M1484.27,3049.1
						c-0.9-0.65-1.91-1.2-3.11-1.48c-21.98-5.08-61.27-9.23-90.65,15.07c-43.05,35.59-54.45,52.49-92.34,74.63l13.17,32.75
						c1.34,3.34,3.48,6.03,6.07,8.05c10.51-3.27,31.14-14.17,71.5-46.6C1436.24,3093.46,1469.04,3063.48,1484.27,3049.1z"/>
				</g>
				
					<linearGradient id="SVGID_00000009568757825934305610000008121944883716042896_" gradientUnits="userSpaceOnUse" x1="680.7304" y1="2836.0479" x2="1133.0813" y2="2836.0479">
					<stop  offset="0" style="stop-color:#09005D"/>
					<stop  offset="1" style="stop-color:#1A0F91"/>
				</linearGradient>
				<path style="fill:url(#SVGID_00000009568757825934305610000008121944883716042896_);" d="M740.41,2582.27
					c0,0,309.98,25.31,373.57,55.24S1062.08,3087,1062.08,3087s-17.31,8.33-55.83-3.64c0,0,39.5-309.61,10.11-376.75l-335.62-54.9
					L740.41,2582.27z"/>
				
					<linearGradient id="SVGID_00000048465214842124885170000005462042810677692842_" gradientUnits="userSpaceOnUse" x1="1267.3583" y1="3098.7017" x2="1335.5789" y2="3098.7017">
					<stop  offset="0" style="stop-color:#FEBBBA"/>
					<stop  offset="1" style="stop-color:#FF928E"/>
				</linearGradient>
				<path style="fill:url(#SVGID_00000048465214842124885170000005462042810677692842_);" d="M1267.36,3078.38
					c2.88,2.62,30.8,58.93,30.8,58.93s31.08-6.72,37.42-26.4l-27.97-50.82L1267.36,3078.38z"/>
				
					<linearGradient id="SVGID_00000174559769003489612310000008964561182793567672_" gradientUnits="userSpaceOnUse" x1="1091.6237" y1="2647.5813" x2="595.0173" y2="3210.6348">
					<stop  offset="0" style="stop-color:#09005D"/>
					<stop  offset="1" style="stop-color:#1A0F91"/>
				</linearGradient>
				<path style="fill:url(#SVGID_00000174559769003489612310000008964561182793567672_);" d="M553.71,2579.68
					c0,0-10.1,24.31-9.69,56.61c0.57,44.67,36.48,80.92,81.1,83.15l366.44,16.71c7.74,0.35,14.29,5.71,16.23,13.21
					c8.61,33.31,50.7,135.59,256.45,339.69c5.47,5.43,14,6.35,20.52,2.24l29.29-18.5c3.07-1.94,4.06-5.97,2.22-9.11l-213.36-364.35
					c-11.21-18.49-29.22-31.85-50.17-37.21l-312.32-79.84L553.71,2579.68z"/>
				
					<linearGradient id="SVGID_00000064334840517841346700000001667810339399505078_" gradientUnits="userSpaceOnUse" x1="888.4167" y1="2137.3647" x2="922.0504" y2="2052.5493">
					<stop  offset="0" style="stop-color:#FEBBBA"/>
					<stop  offset="1" style="stop-color:#FF928E"/>
				</linearGradient>
				<path style="fill:url(#SVGID_00000064334840517841346700000001667810339399505078_);" d="M914.84,2010.54
					c0,0-39.25,69.41-79.28,103.03l82.73,46.16c0,0,18.64-73.48,61.23-94.99L914.84,2010.54z"/>
				
					<linearGradient id="SVGID_00000134236741685771617840000009706374046842248356_" gradientUnits="userSpaceOnUse" x1="1796.9087" y1="1063.4705" x2="765.0093" y2="2635.8877">
					<stop  offset="0" style="stop-color:#4F52FF"/>
					<stop  offset="1" style="stop-color:#4042E2"/>
				</linearGradient>
				<path style="fill:url(#SVGID_00000134236741685771617840000009706374046842248356_);" d="M547.05,2582.27
					c0,0,98.93,24.11,193.35,0c0,0,132.13-177.62,183.24-225.96c0,0,81.54,128.66,263.02,146.9l10.12-22.62
					c0,0-144.48-66.6-188.96-168.94c-44.48-102.34-62.34-145.98-102.81-172.69c-25.2-16.63-40.29-27.99-48.09-34.19
					c-4.27-3.4-10.16-3.78-14.82-0.94C799.17,2130,597.1,2268.4,547.05,2582.27z"/>
				
					<linearGradient id="SVGID_00000119812458483622448820000010949453320261234580_" gradientUnits="userSpaceOnUse" x1="910.2352" y1="2276.803" x2="1564.0488" y2="1187.1156">
					<stop  offset="0" style="stop-color:#09005D"/>
					<stop  offset="1" style="stop-color:#1A0F91"/>
				</linearGradient>
				<path style="fill:url(#SVGID_00000119812458483622448820000010949453320261234580_);" d="M918.29,2353.81
					c-1.91,0-3.79-0.86-5.04-2.48c-31.5-41.08-49.05-86.36-49.78-88.26c-1.25-3.27,0.38-6.94,3.65-8.2c3.28-1.26,6.94,0.38,8.2,3.65
					c0.17,0.45,17.66,45.51,48,85.09c2.13,2.78,1.61,6.76-1.17,8.9C921,2353.38,919.64,2353.81,918.29,2353.81z"/>
				
					<linearGradient id="SVGID_00000060750421695278869050000005153764716877144733_" gradientUnits="userSpaceOnUse" x1="1175.7615" y1="2467.2161" x2="1333.3428" y2="2467.2161">
					<stop  offset="0" style="stop-color:#FEBBBA"/>
					<stop  offset="1" style="stop-color:#FF928E"/>
				</linearGradient>
				<path style="fill:url(#SVGID_00000060750421695278869050000005153764716877144733_);" d="M1175.76,2468.78l20.43-5.44
					l62.02-14.36c7.47-1.73,15.31-0.41,21.8,3.68l53.33,33.55l-147.27-0.25L1175.76,2468.78z"/>
				<g>
					
						<linearGradient id="SVGID_00000026862221949607798770000014269630240515714749_" gradientUnits="userSpaceOnUse" x1="2898.2417" y1="2425.6287" x2="2729.3708" y2="2554.8406" gradientTransform="matrix(0.9914 -0.1306 0.1306 0.9914 -2198.9988 -61.3823)">
						<stop  offset="0" style="stop-color:#FEBBBA"/>
						<stop  offset="1" style="stop-color:#FF928E"/>
					</linearGradient>
					<path style="fill:url(#SVGID_00000026862221949607798770000014269630240515714749_);" d="M977.16,1906.47
						c0,0,38.15,63.42,44.77,98.47c6.62,35.05,17.25,56.96-22.65,69.45c-39.89,12.49-76.97-3.32-100.23-36.04
						c0,0-36.34-50.35-32.71-73.41C869.97,1941.88,977.16,1906.47,977.16,1906.47z"/>
					
						<linearGradient id="SVGID_00000021839140034456224040000010054742639389629848_" gradientUnits="userSpaceOnUse" x1="2779.6021" y1="2323.6284" x2="2932.5198" y2="2520.5098" gradientTransform="matrix(0.9914 -0.1306 0.1306 0.9914 -2198.9988 -61.3823)">
						<stop  offset="0" style="stop-color:#09005D"/>
						<stop  offset="1" style="stop-color:#1A0F91"/>
					</linearGradient>
					<path style="fill:url(#SVGID_00000021839140034456224040000010054742639389629848_);" d="M909.68,2011.22l5.16-0.68
						c0,0-27.01-40.82-9.34-50.94c17.68-10.13,89.71-34.97,102.22-63.34c12.06-27.35-5.98-58.24-27.73-64.69
						c-1.38-0.41-2.83,0.41-3.33,1.75l-1.28,3.44c-0.87,2.36-4.18,2.45-5.18,0.15l0,0c-0.96-2.19-4.09-2.28-5.07-0.11
						c-3.85,8.5-15.41,23.01-50.05,34.24c-49.15,15.93-79.77,40.71-76,75.63c0.24,2.21-1.96,3.74-3.99,2.84
						c-4.02-1.78-10.11-2.06-17.18,5.68c-12.3,13.45-2.67,42.88,30.93,63.7c1.6,0.99,1.88,3.24,0.45,4.46
						c-5.03,4.3-12.1,13.9,10.63,22.45c23.25,8.75,35.94,5.79,40.63,3.91c1.26-0.51,1.98-1.81,1.72-3.15l-5.97-30.6
						c-0.31-1.58,0.78-3.1,2.38-3.31L909.68,2011.22z"/>
					
						<linearGradient id="SVGID_00000016058626770884583340000015436217311709119104_" gradientUnits="userSpaceOnUse" x1="2877.2944" y1="2398.2544" x2="2708.4248" y2="2527.4656" gradientTransform="matrix(0.9914 -0.1306 0.1306 0.9914 -2198.9988 -61.3823)">
						<stop  offset="0" style="stop-color:#FEBBBA"/>
						<stop  offset="1" style="stop-color:#FF928E"/>
					</linearGradient>
					<path style="fill:url(#SVGID_00000016058626770884583340000015436217311709119104_);" d="M911.79,2017.51
						c0,0-16.83-41.5-34.51-26.91c-17.68,14.59,16.34,46.83,32.04,46.4L911.79,2017.51z"/>
				</g>
			</g>
			<g>
				<g>
					
						<linearGradient id="SVGID_00000162342875415753876990000001477821135324879025_" gradientUnits="userSpaceOnUse" x1="21227.1875" y1="-22775.1426" x2="20805.748" y2="-22367.6934" gradientTransform="matrix(-1.388 -0.0686 -0.0685 1.3855 -4690.1738 -570.6171)">
						<stop  offset="0" style="stop-color:#09005D"/>
						<stop  offset="1" style="stop-color:#1A0F91"/>
					</linearGradient>
					<path style="fill:url(#SVGID_00000162342875415753876990000001477821135324879025_);" d="M1118.86,2515.09
						c0.24,0.01,0.48,0.02,0.72,0.02l314.63-0.31c7.78-0.01,14.08-6.31,14.07-14.07c-0.01-7.77-6.34-14.18-14.1-14.04l-314.63,0.31
						c-7.78,0.01-14.07,6.31-14.07,14.07C1105.5,2508.59,1111.42,2514.72,1118.86,2515.09z"/>
				</g>
				<g>
					
						<linearGradient id="SVGID_00000002353862600223032910000000840368653168335806_" gradientUnits="userSpaceOnUse" x1="18195.043" y1="-22757.0957" x2="17773.6211" y2="-22349.6621" gradientTransform="matrix(0.6475 -1.2297 -1.2274 -0.6463 8775.9707 -5472.2012)">
						<stop  offset="0" style="stop-color:#09005D"/>
						<stop  offset="1" style="stop-color:#1A0F91"/>
					</linearGradient>
					<path style="fill:url(#SVGID_00000002353862600223032910000000840368653168335806_);" d="M1556.06,2206.97
						c-0.11,0.21-0.22,0.43-0.32,0.65l-132.38,285.42c-3.27,7.05-0.22,15.42,6.83,18.69c7.05,3.27,15.53,0.23,18.68-6.86
						l132.38-285.42c3.27-7.06,0.22-15.42-6.83-18.69C1567.59,2197.6,1559.53,2200.38,1556.06,2206.97z"/>
				</g>
			</g>
			<g>
				<g>
					<rect x="2346.73" y="2801.93" class="st32" width="33.21" height="359.11"/>
					<path class="st32" d="M2508.75,3167.97h-290.84l0,0c0-11.94,9.68-21.62,21.62-21.62h247.61
						C2499.08,3146.36,2508.75,3156.03,2508.75,3167.97L2508.75,3167.97z"/>
					<path class="st32" d="M2551.92,2789.47c0,19.64-16.07,35.71-35.71,35.71h-294.26c-19.64,0-35.71-16.07-35.71-35.71v-32.29
						c0-19.64,16.07-35.71,35.71-35.71h294.26c19.64,0,35.71,16.07,35.71,35.71V2789.47z"/>
				</g>
				<g>
					
						<linearGradient id="SVGID_00000176727637250604053680000008258036435426173089_" gradientUnits="userSpaceOnUse" x1="1753.1082" y1="4229.4966" x2="2174.2903" y2="2544.7629">
						<stop  offset="0" style="stop-color:#FEBBBA"/>
						<stop  offset="1" style="stop-color:#FF928E"/>
					</linearGradient>
					<path style="fill:url(#SVGID_00000176727637250604053680000008258036435426173089_);" d="M2118.18,2562.49
						c0,0-49.34,7.65-104.82,44.74c-8.73,5.84-13.52,16.01-12.21,26.43c6.64,52.62,33.96,222.94,124.03,389.29
						c4.75,8.77,6.11,18.98,4.02,28.73l-15.65,72.82l-29.02,27.21h74.75l49.77-134.68l-21.28-6.73
						c-16.5-5.22-27.82-20.39-28.12-37.7l-2.5-144.47c2.13-64.37-39.47-108.78-39.47-108.78l119.37-5.81L2118.18,2562.49z"/>
					
						<linearGradient id="SVGID_00000056418273980271459770000015258464052544642490_" gradientUnits="userSpaceOnUse" x1="2706.1338" y1="2165.5156" x2="2305.7358" y2="2839.6023">
						<stop  offset="0" style="stop-color:#09005D"/>
						<stop  offset="1" style="stop-color:#1A0F91"/>
					</linearGradient>
					<path style="fill:url(#SVGID_00000056418273980271459770000015258464052544642490_);" d="M2055.34,3164.85
						c-6.81,8.91,73.27,20.67,113.72,1.18c0,0,56.08-97.57,56.08-147.8c0,0-4.45-10.24-37.38-7.92c0,0-18.83,115.53-38.71,128.47
						c-19.88,12.94-55.63,1.31-55.63,1.31S2065.39,3151.7,2055.34,3164.85z"/>
					
						<linearGradient id="SVGID_00000072997622995608705950000017461683886749523102_" gradientUnits="userSpaceOnUse" x1="1957.7664" y1="3163.9431" x2="2042.0026" y2="1907.4135">
						<stop  offset="0" style="stop-color:#FEBBBA"/>
						<stop  offset="1" style="stop-color:#FF928E"/>
					</linearGradient>
					<path style="fill:url(#SVGID_00000072997622995608705950000017461683886749523102_);" d="M2221.95,2721.47
						c-0.64-1.1-128.52-15.38-128.52-15.38s4.19,38.88-8.89,92.41c-13.08,53.53-200.85,285.44-200.85,285.44l19.69,62.41
						c-60.87,21.2-120.75,24.59-179.67,10.81l122.01-73.22c0,0,114.19-389.14,184.13-458.56l128.19-44.35L2221.95,2721.47z"/>
					
						<linearGradient id="SVGID_00000138567107342361813010000011893000767369235605_" gradientUnits="userSpaceOnUse" x1="2031.1371" y1="2613.3105" x2="2589.3159" y2="2613.3105">
						<stop  offset="0" style="stop-color:#09005D"/>
						<stop  offset="1" style="stop-color:#1A0F91"/>
					</linearGradient>
					<path style="fill:url(#SVGID_00000138567107342361813010000011893000767369235605_);" d="M2508.75,2495.04
						c0,0,73.68,109.59,79.73,159.58c6.05,49.99-20.18,70.3-97.49,73.65c-77.31,3.35-283.7,3.3-283.7,3.3l-176.15-150.54
						c0,0,128.37-45.81,161.75-58.76C2226.26,2509.32,2508.75,2495.04,2508.75,2495.04z"/>
					
						<linearGradient id="SVGID_00000111184910271551076720000004679629475296583563_" gradientUnits="userSpaceOnUse" x1="2477.4297" y1="2029.6689" x2="2077.0847" y2="2703.6672">
						<stop  offset="0" style="stop-color:#09005D"/>
						<stop  offset="1" style="stop-color:#1A0F91"/>
					</linearGradient>
					<path style="fill:url(#SVGID_00000111184910271551076720000004679629475296583563_);" d="M1895.93,3125.34
						c0,0,21.2,20.53,6.88,43.37c0,0-167.91,29.76-213.5,16.26c0,0,9.47-21.61,60.8-46.2l-3.79,2.91c-4.79,3.68-1.98,11.34,4.05,11
						C1784.2,3150.75,1854.21,3144.55,1895.93,3125.34z"/>
				</g>
				<g>
					
						<linearGradient id="SVGID_00000013177743184092283630000009357215240222566073_" gradientUnits="userSpaceOnUse" x1="2424.3157" y1="1681.0231" x2="2342.1248" y2="2112.8164">
						<stop  offset="0" style="stop-color:#09005D"/>
						<stop  offset="1" style="stop-color:#1A0F91"/>
					</linearGradient>
					<path style="fill:url(#SVGID_00000013177743184092283630000009357215240222566073_);" d="M2189.59,1800.03
						c150.62-25.61,221.53,97.24,216.34,123.05c-0.69,3.42,2.54,6.32,5.91,5.41c17.29-4.65,55.49-10.52,79.17,19.15
						c20.91,26.2,5.28,50.92-7.46,64.49c-3.08,3.28-0.49,8.6,3.97,8.04c31.79-4.01,100.87-4.97,112.17,59.74
						c10.54,60.35-31.46,77.36-56.37,82.16c-4.22,0.81-5.2,6.35-1.58,8.65c12.43,7.88,26.83,24.18,21.01,56.33
						c-9.12,50.39-107.92,46.27-119.46,45.61c-0.73-0.04-1.42-0.25-2.06-0.62l-158.25-90.25c-1.23-0.7-2.09-1.92-2.33-3.32
						l-31.95-184.51c-0.26-1.49,0.21-3.02,1.26-4.11l-103.17-145.59C2109.35,1838.74,2187.81,1800.33,2189.59,1800.03z"/>
					
						<linearGradient id="SVGID_00000018198505090897126250000010469185648735232689_" gradientUnits="userSpaceOnUse" x1="2034.1322" y1="3078.9971" x2="2348.3677" y2="2374.5002">
						<stop  offset="0" style="stop-color:#4F52FF"/>
						<stop  offset="1" style="stop-color:#4042E2"/>
					</linearGradient>
					<path style="fill:url(#SVGID_00000018198505090897126250000010469185648735232689_);" d="M2309.49,2480.54
						c0,0-85.8-81.7-128.04-135.82c-22.83-29.25-30-67.76-19.44-103.33c19.28-64.96,53.55-132.25,56.68-142.72
						c4.79-16.05,101-15.38,101-15.38s189.32,122.87,263.7,331l-83.54,26.01c0,0-49.43-82.93-98.27-135.65
						c0,0,84.51,111.64,87.49,157.35L2309.49,2480.54z"/>
					
						<linearGradient id="SVGID_00000085938547675014080170000004426504530370908565_" gradientUnits="userSpaceOnUse" x1="2288.301" y1="2221.2476" x2="2254.668" y2="2005.4368">
						<stop  offset="0" style="stop-color:#FEBBBA"/>
						<stop  offset="1" style="stop-color:#FF928E"/>
					</linearGradient>
					<path style="fill:url(#SVGID_00000085938547675014080170000004426504530370908565_);" d="M2207.05,2008.96
						c1,3.34,26.11,86.58,28.08,88.31c1.96,1.73,55.07,4.58,80.06-12.5l-62-121.28L2207.05,2008.96z"/>
					<g>
						
							<linearGradient id="SVGID_00000053507702583489931980000016750188898869350805_" gradientUnits="userSpaceOnUse" x1="-231.9266" y1="5927.4321" x2="-11.7832" y2="6076.9634" gradientTransform="matrix(0.6042 -0.7968 0.7968 0.6042 -2477.407 -1773.6736)">
							<stop  offset="0" style="stop-color:#FEBBBA"/>
							<stop  offset="1" style="stop-color:#FF928E"/>
						</linearGradient>
						<path style="fill:url(#SVGID_00000053507702583489931980000016750188898869350805_);" d="M2106.39,1901.99
							c0,0-12.14,47.69,21.44,111.83c33.57,64.14,71.58,64.07,92.36,43.54c20.78-20.53,46.4-55.37,40.31-117.38
							C2254.41,1877.97,2123.91,1841.33,2106.39,1901.99z"/>
						
							<linearGradient id="SVGID_00000129186702251636065360000010019812853810116233_" gradientUnits="userSpaceOnUse" x1="-85.0753" y1="5748.5771" x2="-167.267" y2="6180.375" gradientTransform="matrix(0.6042 -0.7968 0.7968 0.6042 -2477.407 -1773.6736)">
							<stop  offset="0" style="stop-color:#09005D"/>
							<stop  offset="1" style="stop-color:#1A0F91"/>
						</linearGradient>
						<path style="fill:url(#SVGID_00000129186702251636065360000010019812853810116233_);" d="M2214.06,1943.35
							c0,0-55.7-85.16-107.94-18.14l-0.94,24.38c0,0-61.18-7.26-50.47-63.36c10.71-56.1,63.58-91.16,131.67-66.86
							c68.09,24.3,107.11,49.22,111.5,98.02c4.39,48.8-34.43,38.1-34.43,38.1s-12.66-34.36-30.67-37.93
							c-18-3.57-13.32,23.22-13.32,23.22L2214.06,1943.35z"/>
						
							<linearGradient id="SVGID_00000112625306293231105420000011100766324632972198_" gradientUnits="userSpaceOnUse" x1="-218.7301" y1="5908.0044" x2="1.4119" y2="6057.5347" gradientTransform="matrix(0.6042 -0.7968 0.7968 0.6042 -2477.407 -1773.6736)">
							<stop  offset="0" style="stop-color:#FEBBBA"/>
							<stop  offset="1" style="stop-color:#FF928E"/>
						</linearGradient>
						<path style="fill:url(#SVGID_00000112625306293231105420000011100766324632972198_);" d="M2228.32,1942.21
							c0,0-28.89-43.61,0.71-50.11c29.6-6.5,25.01,42.49,21.81,60.61L2228.32,1942.21z"/>
					</g>
					
						<linearGradient id="SVGID_00000122689046053368724440000013855754527017339539_" gradientUnits="userSpaceOnUse" x1="2426.4097" y1="2466.2856" x2="2894.4519" y2="2466.2856">
						<stop  offset="0" style="stop-color:#FEBBBA"/>
						<stop  offset="1" style="stop-color:#FF928E"/>
					</linearGradient>
					<path style="fill:url(#SVGID_00000122689046053368724440000013855754527017339539_);" d="M2134.69,2486.6l63.04-60.76
						l87.21,36.84c0,0,86.81,13.45,136.49,0c49.68-13.45,49.68-13.45,49.68-13.45l112.27-34.95l17.63,49.83
						c4.48,12.65-0.02,26.7-10.96,34.47c-9.71,6.9-21.1,14.49-28.36,17.66c-14.79,6.47-364.47-4.47-364.47-4.47L2134.69,2486.6z"/>
				</g>
				<g>
					
						<linearGradient id="SVGID_00000159446553909175374640000014756373605546226094_" gradientUnits="userSpaceOnUse" x1="2351.5256" y1="2592.3948" x2="2056.8894" y2="2673.1467" gradientTransform="matrix(0.9988 -0.0494 0.0494 0.9988 -41.469 -55.0328)">
						<stop  offset="0" style="stop-color:#09005D"/>
						<stop  offset="1" style="stop-color:#1A0F91"/>
					</linearGradient>
					<path style="fill:url(#SVGID_00000159446553909175374640000014756373605546226094_);" d="M2373.26,2515.25
						c-0.28,0.01-0.56,0.02-0.84,0.02l-365.69-0.4c-9.04-0.01-16.36-7.34-16.35-16.38c0.01-9.04,7.37-16.51,16.39-16.35l365.69,0.4
						c9.04,0.01,16.36,7.34,16.35,16.38C2388.79,2507.67,2381.91,2514.82,2373.26,2515.25z"/>
					
						<linearGradient id="SVGID_00000049219237412170185900000003906556095737346973_" gradientUnits="userSpaceOnUse" x1="2036.5231" y1="2227.748" x2="1827.4652" y2="2448.7092">
						<stop  offset="0" style="stop-color:#09005D"/>
						<stop  offset="1" style="stop-color:#1A0F91"/>
					</linearGradient>
					<path style="fill:url(#SVGID_00000049219237412170185900000003906556095737346973_);" d="M1677.99,2183.23h304.55
						c22.47,0,42.92,12.97,52.5,33.29l140.79,298.54h-378.47c-14.48,0-27.49-8.85-32.81-22.31l-109.18-276.26
						C1649.06,2200.52,1660.83,2183.23,1677.99,2183.23z"/>
					<path class="st32" d="M1892.55,2336.3c6.6,20.5,1.72,40.42-10.89,44.48c-12.61,4.06-28.19-9.27-34.79-29.77
						c-6.6-20.5-1.72-40.42,10.89-44.48C1870.37,2302.46,1885.95,2315.79,1892.55,2336.3z"/>
				</g>
			</g>
			<g>
				<g>
					
						<linearGradient id="SVGID_00000173863403513030860780000000635605473452099517_" gradientUnits="userSpaceOnUse" x1="-9410.1699" y1="3508.6206" x2="-9407.083" y2="3835.8411" gradientTransform="matrix(-1 0 0 1 -6719.2798 0)">
						<stop  offset="0" style="stop-color:#09005D"/>
						<stop  offset="1" style="stop-color:#1A0F91"/>
					</linearGradient>
					<path style="fill:url(#SVGID_00000173863403513030860780000000635605473452099517_);" d="M2790.17,3122.71
						c0,0,3.84,21.31,5.35,46.61c0.65,10.78-7.34,20.15-18.09,21.19c-37.43,3.63-122.63,10.33-177.03,2.48
						c-7.62-1.1-10.65-10.46-5.01-15.71c22.43-20.9,76.61-61.55,165.77-70.44L2790.17,3122.71z"/>
					
						<linearGradient id="SVGID_00000017493289429869167300000011815578482945401017_" gradientUnits="userSpaceOnUse" x1="-9489.0459" y1="3143.1982" x2="-9506.0244" y2="3010.4583" gradientTransform="matrix(-1 0 0 1 -6719.2798 0)">
						<stop  offset="0" style="stop-color:#FEBBBA"/>
						<stop  offset="1" style="stop-color:#FF928E"/>
					</linearGradient>
					<path style="fill:url(#SVGID_00000017493289429869167300000011815578482945401017_);" d="M2808.78,3074.67l-18.92,46.39
						c-2.59,6.36-9.04,10.31-15.87,9.59c-4.63-0.48-10.12-1.37-15.46-2.99c-10.68-3.24-16.7-14.56-13.51-25.26l14.28-47.78
						L2808.78,3074.67z"/>
					
						<linearGradient id="SVGID_00000111162765346390951470000011174637947555794859_" gradientUnits="userSpaceOnUse" x1="-9852.2656" y1="3512.7898" x2="-9849.1787" y2="3840.0083" gradientTransform="matrix(-1 0 0 1 -6719.2798 0)">
						<stop  offset="0" style="stop-color:#09005D"/>
						<stop  offset="1" style="stop-color:#1A0F91"/>
					</linearGradient>
					<path style="fill:url(#SVGID_00000111162765346390951470000011174637947555794859_);" d="M3132.32,3159.65
						c0,0-37.9,31.71-52.66,72.38c-4.06,11.19,4.52,22.97,16.42,22.97h77.98c11.41,0,20.16-10.27,18.18-21.51
						C3187.28,3205.41,3172.95,3159.77,3132.32,3159.65z"/>
					
						<linearGradient id="SVGID_00000143599754337097163980000009290667970835631524_" gradientUnits="userSpaceOnUse" x1="-9860.1318" y1="3188.6924" x2="-9876.6768" y2="3059.3406" gradientTransform="matrix(-1 0 0 1 -6719.2798 0)">
						<stop  offset="0" style="stop-color:#FEBBBA"/>
						<stop  offset="1" style="stop-color:#FF928E"/>
					</linearGradient>
					<path style="fill:url(#SVGID_00000143599754337097163980000009290667970835631524_);" d="M3179.27,3118.39
						c0,0-7.65,33.88-13.54,56.27c-1.07,4.06-5.4,6.29-9.36,4.88c-11.8-4.22-21.4-6.08-28.39-5.15c-3.23,0.43-6.04-2.25-6.09-5.51
						l-0.73-56.27L3179.27,3118.39z"/>
					
						<linearGradient id="SVGID_00000135659737551279937090000014050711791548052154_" gradientUnits="userSpaceOnUse" x1="2880.4761" y1="2144.384" x2="3033.6594" y2="2890.0271">
						<stop  offset="0" style="stop-color:#09005D"/>
						<stop  offset="1" style="stop-color:#1A0F91"/>
					</linearGradient>
					<path style="fill:url(#SVGID_00000135659737551279937090000014050711791548052154_);" d="M2977.72,2356.01l-230.5,703.2
						c0,0,44.21,28.95,65.27,27.75l273.78-565.14c0,0,47.91,348.22,24.69,598.21l78.42,5.98c0,0,127.51-638.86,30.93-857.68
						L2977.72,2356.01z"/>
					
						<linearGradient id="SVGID_00000081640303163087782520000008336242132911369351_" gradientUnits="userSpaceOnUse" x1="-9870.124" y1="2619.0464" x2="-9851.6016" y2="2582.0029" gradientTransform="matrix(-1 0 0 1 -6719.2798 0)">
						<stop  offset="0" style="stop-color:#4F52FF"/>
						<stop  offset="1" style="stop-color:#4042E2"/>
					</linearGradient>
					<path style="fill:url(#SVGID_00000081640303163087782520000008336242132911369351_);" d="M3084.8,2515.75
						c0.09,0,0.19-0.01,0.28-0.02c1.22-0.15,2.09-1.27,1.94-2.49l-8.95-71c-0.15-1.22-1.26-2.07-2.49-1.94
						c-1.22,0.15-2.09,1.27-1.94,2.49l8.95,71C3082.73,2514.92,3083.69,2515.75,3084.8,2515.75z"/>
				</g>
				
					<linearGradient id="SVGID_00000154384262585059565740000010009011625356470451_" gradientUnits="userSpaceOnUse" x1="-9565.3291" y1="1840.9382" x2="-9883.2871" y2="2785.5515" gradientTransform="matrix(-1 0 0 1 -6719.2798 0)">
					<stop  offset="0" style="stop-color:#4F52FF"/>
					<stop  offset="1" style="stop-color:#4042E2"/>
				</linearGradient>
				<path style="fill:url(#SVGID_00000154384262585059565740000010009011625356470451_);" d="M2934.51,1737.23
					c0,0,186.75,16.58,160.33,149.65c0,0,103.23,194.27,151.49,423.12c1.57,7.45-3.42,14.71-10.92,15.99l-311,53.25
					c-8.58,1.47-16.85-3.88-19.03-12.31l-74.31-287.19l-28.96,133.52l-92.01-23.97l77.46-392.36
					C2787.56,1796.93,2798.37,1739.69,2934.51,1737.23z"/>
				<path class="st4" d="M2829.49,2066.89c0.16,0,0.33-0.02,0.49-0.05c1.25-0.27,2.04-1.51,1.77-2.76l-25.92-119.04
					c-0.27-1.25-1.49-2.03-2.76-1.77c-1.25,0.27-2.04,1.51-1.77,2.76l25.92,119.04C2827.47,2066.15,2828.43,2066.89,2829.49,2066.89
					z"/>
				
					<linearGradient id="SVGID_00000060717854158319767420000017950787692867475111_" gradientUnits="userSpaceOnUse" x1="-9735.084" y1="2339.1289" x2="-9503.1973" y2="2339.1289" gradientTransform="matrix(-1 0 0 1 -6719.2798 0)">
					<stop  offset="0" style="stop-color:#FEBBBA"/>
					<stop  offset="1" style="stop-color:#FF928E"/>
				</linearGradient>
				<path style="fill:url(#SVGID_00000060717854158319767420000017950787692867475111_);" d="M2848.26,2421.11
					c9.8-5.39,21.27-6.88,32.11-4.18l21.64,5.39c4.6,1.15,9.16-2.02,9.69-6.73l22.39-199.3c28,13.3,68.39,11.71,81.71,10.73
					l-51.54,234.96h-180.35L2848.26,2421.11z"/>
				
					<linearGradient id="SVGID_00000069367895749402925040000005622372062766520480_" gradientUnits="userSpaceOnUse" x1="-9521.3945" y1="2048.4456" x2="-9088.3574" y2="2048.4456" gradientTransform="matrix(-1 0 0 1 -6719.2798 0)">
					<stop  offset="0" style="stop-color:#FEBBBA"/>
					<stop  offset="1" style="stop-color:#FF928E"/>
				</linearGradient>
				<path style="fill:url(#SVGID_00000069367895749402925040000005622372062766520480_);" d="M2369.08,1988.79l5.45-18.12
					c3.14-10.43,10.84-18.86,20.95-22.92l98.59-39.65c0,0,1.49-12.64-20.83-21.24c-22.32-8.59-17.1-33.59-17.1-33.59
					s30.49,13.91,75.13,35.97c25.53,12.62,39.85,34.89,47.45,51.66l223.4,272.35l-26.23,18.02c-34.49,23.7-81.93,12.06-101.53-24.92
					l-121.02-232.07C2492.57,1992.55,2431.09,1996.04,2369.08,1988.79z"/>
				<g>
					
						<linearGradient id="SVGID_00000029743075021068573910000003266561054637054395_" gradientUnits="userSpaceOnUse" x1="-9677.2949" y1="1805.5699" x2="-9526.5879" y2="1650.9484" gradientTransform="matrix(-1 0 0 1 -6719.2798 0)">
						<stop  offset="0" style="stop-color:#FEBBBA"/>
						<stop  offset="1" style="stop-color:#FF928E"/>
					</linearGradient>
					<path style="fill:url(#SVGID_00000029743075021068573910000003266561054637054395_);" d="M2874.01,1610.18l57.44,160.76
						c0,0-50.86,39.76-87.98,26.32l-28.94-92.15C2814.52,1705.1,2836.63,1592.48,2874.01,1610.18z"/>
					<g>
						
							<linearGradient id="SVGID_00000144302595294434889910000004201656504090579631_" gradientUnits="userSpaceOnUse" x1="-9458.7324" y1="1553.5282" x2="-9646.627" y2="1802.0967" gradientTransform="matrix(-1 0 0 1 -6719.2798 0)">
							<stop  offset="0" style="stop-color:#FEBBBA"/>
							<stop  offset="1" style="stop-color:#FF928E"/>
						</linearGradient>
						<path style="fill:url(#SVGID_00000144302595294434889910000004201656504090579631_);" d="M2702.58,1552.44
							c0,2.48,55.33,156.63,55.33,156.63l87.35-33.46l-30.73-153.9C2814.52,1521.71,2702.58,1510.97,2702.58,1552.44z"/>
						
							<linearGradient id="SVGID_00000152241085224548409830000015377793074285555848_" gradientUnits="userSpaceOnUse" x1="3025.8757" y1="846.5982" x2="2827.6375" y2="1421.0369">
							<stop  offset="0" style="stop-color:#E1473D"/>
							<stop  offset="1" style="stop-color:#E9605A"/>
						</linearGradient>
						<path style="fill:url(#SVGID_00000152241085224548409830000015377793074285555848_);" d="M2799.2,1559.21l22.52,79.75
							c0.29,1.02,0.44,2.05,0.44,3.12c0.01,6.5-1.6,28.89-24.4,25.84c-20.69-2.76-39.61-4.98-51.64,0.69
							c-5.4,2.54-7.99,8.76-5.97,14.38c5.03,14,16.95,45.35,31.46,71.01c2.94,5.21,9.4,7.23,14.85,4.75
							c16.41-7.46,50.56-24.17,74.9-44.05c3.3-2.69,4.88-6.93,4.1-11.11c-3.83-20.4-15.23-82.45-15.73-100.23
							c-0.47-16.69,18.26-29.43,26.5-34.22c2.7-1.57,4.63-4.16,5.36-7.2c2.59-10.74,4.79-35.05-26.23-40.41
							c-6.49-1.12-10.72-7.33-9.4-13.79c2.62-12.85,1.78-31.75-22.61-38.72c-24.8-7.08-40.4,7.85-48.34,19.29
							c-3.21,4.63-9.21,6.13-14.36,3.83c-2.93-1.31-6.46-1.37-10.26,1.84c-5.12,4.32-12.92,3-16.68-2.54
							c-7.23-10.64-20.37-21.27-42.61-14.07c-39.46,12.77-37.58,58.27-23.11,83c14.47,24.73,56.46,8.46,76.35-7.93
							c15.12-12.46,38.13-5.01,48.3-0.72C2795.85,1553.08,2798.25,1555.84,2799.2,1559.21z"/>
						
							<linearGradient id="SVGID_00000162348126479851180550000005035214214904393107_" gradientUnits="userSpaceOnUse" x1="-9733.9238" y1="1750.3748" x2="-9583.2178" y2="1595.7542" gradientTransform="matrix(-1 0 0 1 -6719.2798 0)">
							<stop  offset="0" style="stop-color:#FEBBBA"/>
							<stop  offset="1" style="stop-color:#FF928E"/>
						</linearGradient>
						<path style="fill:url(#SVGID_00000162348126479851180550000005035214214904393107_);" d="M2857.64,1632.47
							c0,0-23.36-44.18-7.91-58.05c15.44-13.87,41.61-11.6,40.91,22.95C2889.76,1640.33,2857.64,1632.47,2857.64,1632.47z"/>
					</g>
				</g>
				<path class="st4" d="M2997.68,2230c12.75,0,21.84-0.97,22.83-1.08l1.66-0.19l68-317.05c0.27-1.25-0.53-2.48-1.78-2.75
					c-1.26-0.28-2.48,0.53-2.75,1.78l-67.3,313.76c-10.12,0.89-64.16,4.48-92.69-15.73l58.91-275.45l-12.3-23.17
					c-0.6-1.13-2-1.56-3.13-0.96c-1.13,0.6-1.56,2-0.96,3.13l11.51,21.68l-59.18,276.72l1.18,0.89
					C2942.3,2227.07,2975.5,2230,2997.68,2230z"/>
			</g>
			<g>
				
					<linearGradient id="SVGID_00000079444417812207100850000016625515537882184123_" gradientUnits="userSpaceOnUse" x1="596.5228" y1="4604.4004" x2="1154.646" y2="2614.1077">
					<stop  offset="0" style="stop-color:#4F52FF"/>
					<stop  offset="1" style="stop-color:#4042E2"/>
				</linearGradient>
				<path style="fill:url(#SVGID_00000079444417812207100850000016625515537882184123_);" d="M959.07,3196.64
					c-1.56,0-3.15-0.34-4.68-1.06c-6.01-2.82-8.79-10.43-6.2-16.99l248.49-630.5c2.58-6.56,9.55-9.59,15.57-6.77
					c6.01,2.82,8.79,10.43,6.2,16.99l-248.49,630.49C968.03,3193.71,963.66,3196.64,959.07,3196.64z"/>
				
					<linearGradient id="SVGID_00000070096488340967776020000007171508782914569098_" gradientUnits="userSpaceOnUse" x1="625.664" y1="4612.5732" x2="1183.7877" y2="2622.2786">
					<stop  offset="0" style="stop-color:#4F52FF"/>
					<stop  offset="1" style="stop-color:#4042E2"/>
				</linearGradient>
				<path style="fill:url(#SVGID_00000070096488340967776020000007171508782914569098_);" d="M1239,3196.64
					c-4.59,0-8.96-2.93-10.89-7.83l-248.49-630.49c-2.59-6.56,0.19-14.17,6.2-16.99c6.01-2.82,12.98,0.21,15.57,6.77l248.49,630.5
					c2.59,6.56-0.19,14.17-6.2,16.99C1242.15,3196.3,1240.56,3196.64,1239,3196.64z"/>
				
					<linearGradient id="SVGID_00000008871634491849367470000008761432119494948795_" gradientUnits="userSpaceOnUse" x1="2159.9985" y1="5042.8398" x2="2718.1218" y2="3052.5469">
					<stop  offset="0" style="stop-color:#4F52FF"/>
					<stop  offset="1" style="stop-color:#4042E2"/>
				</linearGradient>
				<path style="fill:url(#SVGID_00000008871634491849367470000008761432119494948795_);" d="M2645.49,3196.64
					c-1.56,0-3.15-0.34-4.68-1.06c-6.01-2.82-8.79-10.43-6.2-16.99l248.49-630.5c2.59-6.56,9.55-9.59,15.57-6.77
					c6.01,2.82,8.79,10.43,6.2,16.99l-248.49,630.49C2654.46,3193.71,2650.09,3196.64,2645.49,3196.64z"/>
				
					<linearGradient id="SVGID_00000082348370839723917970000002921643963565593497_" gradientUnits="userSpaceOnUse" x1="2189.1392" y1="5051.0073" x2="2747.2629" y2="3060.7129">
					<stop  offset="0" style="stop-color:#4F52FF"/>
					<stop  offset="1" style="stop-color:#4042E2"/>
				</linearGradient>
				<path style="fill:url(#SVGID_00000082348370839723917970000002921643963565593497_);" d="M2925.42,3196.64
					c-4.59,0-8.96-2.93-10.89-7.83l-248.49-630.49c-2.59-6.56,0.19-14.17,6.2-16.99c6.01-2.82,12.98,0.21,15.57,6.77l248.49,630.5
					c2.59,6.56-0.19,14.17-6.2,16.99C2928.58,3196.3,2926.99,3196.64,2925.42,3196.64z"/>
			</g>
			<g>
				<path class="st4" d="M2609.44,2503.57l359.9,0v-37.14h-359.9C2617.14,2466.43,2617.14,2503.57,2609.44,2503.57z"/>
				
					<linearGradient id="SVGID_00000036249135992446330290000005081269275653817530_" gradientUnits="userSpaceOnUse" x1="2947.3809" y1="1869.3344" x2="2857.7068" y2="2245.9656">
					<stop  offset="0" style="stop-color:#09005D"/>
					<stop  offset="1" style="stop-color:#1A0F91"/>
				</linearGradient>
				<path style="fill:url(#SVGID_00000036249135992446330290000005081269275653817530_);" d="M2965.96,2503.57
					c1.86,0,3.38-1.52,3.38-3.38v-30.38c0-1.86-1.52-3.38-3.38-3.38h-364.12c-1.86,0-3.38-1.52-3.38-3.38v-1.64
					c0-1.86,1.52-3.38,3.38-3.38h388.1c8.58,0,15.54,6.96,15.54,15.54v23.74c0,8.09-6.56,14.65-14.66,14.65h-388.99
					c-1.86,0-3.38-1.52-3.38-3.38v-1.64c0-1.86,1.52-3.38,3.38-3.38H2965.96z"/>
			</g>
			
				<linearGradient id="SVGID_00000173867007534063190710000015539892513059234464_" gradientUnits="userSpaceOnUse" x1="1284.071" y1="4797.1997" x2="1842.1941" y2="2806.9075">
				<stop  offset="0" style="stop-color:#4F52FF"/>
				<stop  offset="1" style="stop-color:#4042E2"/>
			</linearGradient>
			<path style="fill:url(#SVGID_00000173867007534063190710000015539892513059234464_);" d="M3021.51,2528.61
				c1.21-4.15-0.44-8.43-4.49-11.69c-4.05-3.26-10.08-5.14-16.45-5.14H844.08c-8.37,0-16.17,2.83-20.68,7.51
				c-4.51,4.68-5.12,10.56-1.6,15.6l23.37,33.55c5.35,7.68,16.95,12.6,29.71,12.6h2110.89c11.87,0,22.07-5.58,24.32-13.31
				L3021.51,2528.61z"/>
		</g>
	</g>
</g>
</svg>
